<mxfile host="app.diagrams.net" modified="2024-05-07T17:38:17.020Z" agent="Mozilla/5.0 (Windows NT 10.0; Win64; x64) AppleWebKit/537.36 (KHTML, like Gecko) Chrome/124.0.0.0 Safari/537.36" etag="DTawA3vrJ5a32TW2D4LL" version="24.3.1" type="github">
  <diagram id="Kd1FDJQy_ymCQOPq6sFN" name="NTN-MuleSoft Network Diagram">
    <mxGraphModel dx="5830" dy="3030" grid="0" gridSize="10" guides="1" tooltips="1" connect="1" arrows="1" fold="1" page="0" pageScale="1" pageWidth="827" pageHeight="1169" math="0" shadow="0">
      <root>
        <mxCell id="0" />
        <mxCell id="1" parent="0" />
        <mxCell id="v_wZgBtS-z9SW-eihl9p-14" value="&lt;font style=&quot;font-size: 22px;&quot;&gt;AWS Cloud&lt;/font&gt;" style="points=[[0,0],[0.25,0],[0.5,0],[0.75,0],[1,0],[1,0.25],[1,0.5],[1,0.75],[1,1],[0.75,1],[0.5,1],[0.25,1],[0,1],[0,0.75],[0,0.5],[0,0.25]];outlineConnect=0;html=1;whiteSpace=wrap;fontSize=12;fontStyle=0;container=1;pointerEvents=0;collapsible=0;recursiveResize=0;shape=mxgraph.aws4.group;grIcon=mxgraph.aws4.group_aws_cloud_alt;strokeColor=#6c8ebf;fillColor=#47AFFF;verticalAlign=top;align=left;spacingLeft=30;dashed=0;strokeWidth=3;" vertex="1" parent="1">
          <mxGeometry x="25" y="44" width="1458" height="569" as="geometry" />
        </mxCell>
        <mxCell id="uLFq85hj9WoVxSmZYbQs-9" value="&lt;font style=&quot;font-size: 22px;&quot;&gt;Private subnet&lt;/font&gt;" style="points=[[0,0],[0.25,0],[0.5,0],[0.75,0],[1,0],[1,0.25],[1,0.5],[1,0.75],[1,1],[0.75,1],[0.5,1],[0.25,1],[0,1],[0,0.75],[0,0.5],[0,0.25]];outlineConnect=0;gradientColor=none;html=1;whiteSpace=wrap;fontSize=12;fontStyle=0;container=1;pointerEvents=0;collapsible=0;recursiveResize=0;shape=mxgraph.aws4.group;grIcon=mxgraph.aws4.group_security_group;grStroke=0;strokeColor=#00A4A6;fillColor=#E6F6F7;verticalAlign=top;align=left;spacingLeft=30;fontColor=#147EBA;dashed=0;" vertex="1" parent="v_wZgBtS-z9SW-eihl9p-14">
          <mxGeometry x="767" y="76.5" width="478" height="357" as="geometry" />
        </mxCell>
        <mxCell id="uLFq85hj9WoVxSmZYbQs-22" value="MuleSoft Process and System API" style="shape=image;verticalLabelPosition=bottom;verticalAlign=top;imageAspect=0;image=data:image/png,iVBORw0KGgoAAAANSUhEUgAAAO4AAACECAYAAACXgRceAAAAAXNSR0IArs4c6QAAAIRlWElmTU0AKgAAAAgABQESAAMAAAABAAEAAAEaAAUAAAABAAAASgEbAAUAAAABAAAAUgEoAAMAAAABAAIAAIdpAAQAAAABAAAAWgAAAAAAAAFKAAAAAQAAAUoAAAABAAOgAQADAAAAAQABAACgAgAEAAAAAQAAAO6gAwAEAAAAAQAAAIQAAAAAyiTvzQAAAAlwSFlzAAAywAAAMsABKGRa2wAAIsdJREFUeAHtXQmYFNW1vt2zMQsDw7CDIKKoILiigs8nuKDGxKgRoxLZkhDFaGJc8mL8BKKJMcnTxJcYg4qCMYkao1mMu2A0IriACIggEllkZ4bZt+5+/189t6em5nZVdU91T0/1Pd8307XcuvfWqfrrnHvuOecKoUlzQHOg23Eg0O163M07PGfOnLyWlpZ+gUCg4eGHH67A7US6wy1dddVVxQWBgpGhSKgskhPhe7Ortrb206eeeqqpO/Tfb30M+u2GMv1+GhoaSkVYXB5piVwxffr0I+bOnVuS4X0OXHnllWU5OTlnhgKhB0RQvIJPzVJ8eG4pLy/vneF99233cn17Zxl6Y/n5+bnhlvDYsAhPDwaCO+tr61fNnjn7XwDES7m5uesXLlzYnCldnz179mAREl9EX78CsJ4cEREN1Ax5OBq4XfcgqO0MARiGRCKRCwCQBU3hprUAyxPhcPglAHxrRUVFPVRRAjkt6vTUqVNz+vXrV1hXVzcCEvWr6Mc0tD0Mf1ozAxMyiTRw0/w0ANJmwGB3IBRoAWgl/zlmLAQ8x4dD4fHYrm1uav6kuLh41cyZM98PhoPvNoYa1z3++ONVXnd3/vz5wa1btw5Ev8YHIoEJdbV1E9DGOOzHla4BEWhB2T3Nzc0tXvdH1+eOA9o45Y5PXpYKTJs2rSckKgFyUyQcOQO/BLDyWRAkONeAv12Qgi/miJzFJbUla+958p4G7CcliQnWPXv2FNXX15+M+r8ByToJ9ZfhLx9/SukKIEeCwWAjevkyPjr3osfvLlq0qAblk+oDrtPUCQ4oX5ZO1KcvTYADN9xwQyHU4ZOAiSsAoMm4dCT+8uyqMIAcEGsgrf8OIL0Cqbfqscceq7W7pvVcYO7UucX1JfUnQlpOQZsXAoSjiUeHa6vxgViPdl+NBCJP79q1a93zzz/f6HCNPp1iDmjgppjBbqrH2DIfavFgAJGAuhpS+HgX11HSVQSCgQ8ArDuGDRv2BiSpUnXF8Vyow6dDsi6AfDwG11ENtn32qPMgyv4dYF0C7WDVxo0bK5ctW6as30VfdRGPOWD78DxuS1fnggNQo0sBlPMB4KsAnBMh6fqaxsLxaggDaI8BissBznbgwvG8oAhODEfCX8PFds87hLYqANSNKP9cbiT3iYWLF26O16A+3rUcsHuQXduzLG+dAC4IFowKB8JnAW5TwY6x+OMY1GuqR/2rUOmz+HsDwN+0ZMmSA9jWY1evOe1hfRq4HjIzRVUFoErn9ezZ82SAajrGp5MhgftDOha5kMTWLhGM9HSqgSTejuv/BseKJ6uqqj7CtFPIWljvZy4HNHAz99koe3b11Vf3h/fVaAD4aIDvaIBvFGTjMEjNQVCvS3EsZmzCPoFK49IWlKPauwGH1uZF8tY1Rho3uzRqKfuhD3YtBzRw08R/SM1CSM3TIDVnQVo2BHOC927evHlDZww+dJgYOHBgbmVlZW5eXl4wWB8saspr6gUjVxH+Io2Njftxe1UwfLXAet0yZsyYFhiqwgnecgD+1bktDS0nYaJoDryoDsGH4DPU8SZ+X4S3195M8vZK8N66bXEN3NQ/ugCcKIYDrPMh7WggymltshK/L8Aq/DTU1bcffPDBHQBCxowr+VEA4A8JRoKnRYKRr8DSPRn9tTplVEHS/xPHF8GgtkwDuPXJpuFHAzfFTAYASkqKS14EaOlwYeU3gdqAo58BtP8AgBc99NBDH6W4S7bV0zkDU0dj0d9vAKzno/Bg/PXAn7Xv5noOQoO4o7q6+pd6rGxmS+q27R5G6lrNoppnzZr1cwDgJpe3XAsArwBEngmGgisbw43bioqK9qVSkuHDkl9YWNgPH43hkVDkVLR/MdqnUwjB6ppwXRhaxdcXPbroUdcX6YJJc0ADN2nWOV84Y8aMkXihP4TxqNC5dLsStPBSld4BMGwI5ARWAkjLWRfcDKvblUxi57rrriutqak5HgauCRiz0kd5FIxXQ1BVL/zFjFtJVF3R3NI8Dj7V25O4Vl+SAAekk3sCl+iibjmQF8y7HIHnhQCF20tkOY6Dy/mHa8dBEl5GRRWSu3bWzFmf4PhqgI0fhE/DwfB2SMuKQFMgFMmPhOECGYGhKhAKhQI4novfvgD8UMQAH4brOBd8XHVV9Sj85st+yV8c6xShnTKMdWejkh91qiJ9sSMHNHAdWZR8AYD2HEjK5CswXxmtphj1HYvDxxpgo76E46GWUBPkZLNoEc2I8Q0hwigHwM7F8QKUyPOsD+b+KLbZDryupuCUBq6CP14e0sD1kpsd66KESwfRo4p/BqULqLI98y++GhPN+3o7NRwIpqZaXSs5AAD1yTZOQF3WdpM0PHQN3DQwWTehOeA1BzRwveaork9zIA0c0MBNA5N1E5oDXnNAA9drjur6NAfSwAEN3DQwWTehOeA1BzRwveaork9zIA0c0MBNA5N1E5oDXnNAA9drjur6NAfSwAEN3DQwWTehOeA1B7Lb5fGRLZO8Zqi5vl0fLDbvZs92ivkaY+SsEcti21m2kV3uaXyhgmISIm3OgHP+pCx71n6+3QWIflomsgjI2QFcAjZHzNNg9TN2Y/e2QMwYMT+259MN/wN3yZalGrA+fXvj35bvwetf4GopG/+1zpYzYTHZr+qzP4EbHcsuzZb3U9+nLQd8KX39OR0UFBq0tu9yVp2cJ/gh9xn5D7gc02rSHDBzwIcfcn+pyou3zMfzmmd+Zn7c5kPLCwZET6zDV5IXEEU5AYFd/AZFPtLMVTQhd2MEiwThX3VzRFQ1h0VjCAeymQKYLpo+YrJfWOA34Pr67SzODYghRbmiX4+gOAS/R/bKEyN75hrHgF8xtDhX9MkPitUVTaIZoCWAPz7YLD7C37bakNjXGBI760PiII77mlHx0OkjY5V/PKei0jbeI+uWx/lVLYA0/e8BPcRXDy3GbwGAmSMI4Hwcj/fVPQPlzUSQEsh1LRGANyze398onvhPrVi2q8EAd9aAmHP5ApLXBxTv2Xe/W1uMBel8QvnQe88c2ENcMLRIfGV4kRhUKJcb8vYGP4f0fWFHvfjbtjrx1t5Gsbch5G0DmVjbjBG+eOd9cROG1dAHBohCSNHJAOx9J5eLYcU5xjjW+u5TctZjvMq/XQAe1eCNVUipjDX4qArXYEw7oiTXkMj9CoJibFm+GI59joN74I8S3PzQ+bVrQZ2fVLeIBzZWiz9uqRX7UQ8O+ZN8oi6bn6G7B5WJpnX6H3dzo9TcI3uK2Yf3FCeWx9Ijx54HMfTOvkbx0uf14r0DTWIjwLqjdawaK2SzQdV6IKT2iJI8cUKffHHWoB7ilH4FoheMW2ai/epjfAQe21wjfv9pjdhe50MJTCNVSCww33eXbyfhY+0OuNoLKSXPlpbgo2Fguv+UcmMca24Ew1EYlFrE81Bl71l/UGyGRPSShsK4Ne2wYmPsfDgMXLRQm+ltqM53rT0oXsbHgtJdU4o5wA9KRLzu1s/aHrgasCl7WrlA7b0nlYkrR5SIPlBpzUT193vvHhArAZ4DsACnivjwSwDY4yGFrx7VU1w8rMhQp2V7nEb682d14hfrDhoquTyuf1POAUdvr/jAzZI50ZQ/AkUDoyFl/w/j2EkYz1LqSvqwskn8ZM1B8SdYfNNNGPoKWqOvP7rUGGeXmiTwcnxAfvRBpXgNVmjODWtKCwdswWt6bUyd0aA1McPbzUuHF4t7x/fB3GtOzEhEg9NtqyvF/RuqRA115C4kGrAoeb9/TC8xDoYt+YLsgcV5Hvr4OIxX1ZDEmtLAARunkY7zDBq0KXsiVEcJ2gEwFElAUJpdsmyPoZKmUCt2fU/8bqytbDYMYQTxkaV5hiW6OBcWwIHRZX7XQ5Wv7eIPjOsb6t4FDxUXfzcgnv3VMuttyPen7biP5kPbbqprtzgve+PoUnEzpFgZPJtIlLIPbaoRN793IGNBUIB+XwNr9w3o+yHwyuLLQjsVjWW/+qhK7PCj1dl4Ohn2TzGF1V7iRqXtpAzrdrfvzrxje4vvjW4DbSNAe+2KA+JuWG0bMthiy66thJcVjWV0r6S7Jcfkp/brYcwxr8WYvArzxppSzIGgOFQ886vF5lbamzO7+Vyo+cYyYZsGn28fVSq+BRW5d6ukpf/w9Df3icWYK+0Ohh7aouhddct7FeLNPY2GxOV9XYf74rxzX4tFPBP47rs+MD+axX+iDbiWE767+S64oWmHlYibx5QiKCCq2NDwdNnre8VfttYaqnK8Lh0GT6ejIOHSRcOgBnM+GX4acYl+zdeu2G/4N1PGUvL+YGwvzAWXxD5KcS/WJzznQBtwo95HnjeQrRVybpTjWjk2pCV2zvJ94o09DYZ7ooovBM43jugp1l80RDwysW+7qSJVeS+O0atqxsgS8eqUgeLuE/sY7pHx6l2DqKN5H1QIGtQoiWm8Ing5rcXxsKYUciAaIBFroA24sUN6o7McKIf6eNcJZYYU4+tMA+zNUDXpzB8vLpYAWnbuILFwQrkBglPhkkg1O9V05qBCOIEUG4EM38Uc7sMT+orTMZ8bD4b/hrp855pKwTln0gBoEz8EeMeW5cW9JtX3kI31m4E7LxsZ4PU9U/DcOra3OKVvQSxI4NeYn33qs9q41mPG1L5x3iBxWv+Cdi//fBi1DoXanCo6vGeeuAzRR1ItZ9/px3wfpqy+iMikeEKUY176M3/ealU+qbxAzME4nvHAmlLEAUsecDNwU9RidlU7BRLsgqGFsXEfJRSBW4E4WBXRT3gp1FSq1lbi1BH9mFNBVHPZz6lwCLHScejLL+COSWcR1biXY9xff1wtXjT5MU/HWHcitATWqyn1HNDA9ZDHdBNklA+NSyRakG9fXSG2IvsEX3YrDYX31HNnDbCVVGdDAl4FUHhNEwCymRjbMsxPRaPgeHHHcb0Nyas6T5X/p5jOehfTRbw31nMTDHFH4DpNqeeABq6HPJ4+slicALWR+aBIv4VUokGHzhZW4jTK05P6C6qrauhEr2BdPz6+t+jfapm21pPMPq3IlyOjBiWrHRG8ND4xRlhFjAP+E1wgtyOKiUSV+RK4S+opIhW3vD2mgesRPwmsiw6JGnlY5TuQRH/YUoOg9I4qMoH66Gn9EHtbEHccae7WYDg+3HNSH/OhpLf5IaAU5zSOGzoZY3UayY7prQY556NX7GuKzUlTOxgGjcPuY+SmXV3GngMauPb8cX32Uhh5juwV9SyigL0f0vY/NS1KFZlTPpRicbTUDm2y3EWQZByTdpbGI1Cf7dOK7Za+fEgRxrtFHcIPeT19lh/dXC0+bY0XpqHtC0OKRJl2zHDL3qTKaeAmxbb2F3Fsy/xQgwqjY1tK25XIWKFyxOcY8LZxvURhAsBha0Uo/3PMs1oD3tv3xH6PuasugcGJ49tEiB8OWo0nY5pIZWmmlZljXRlw/zUE6NM90v2nIZHe6LLkgAauB+8Bp1AoaaQEXfRJjdgKaauiBZjiMUcHqcqojhEEzCVFg1EyxPBaxtvOPtydimxtg6CfDmPWmF4dVWb6ND+NgHs51uXY+JS++cbHxlqP3veGAxq4HvDx3MGFgqlgSAx5o7RVxdUyzSrHl8l6GXGqhWNIeiolSmMxRv0mpKaMTkr0epbnfY4HIKXxzVwH82Ex4RydTfiROR/qcp+C9jEs5vJ6u3Mc0MDtHP8EpQsNN3LM+M/t9Ub2RVW112KqqLQ12EB13s2xXrj+ruPLEpJmtPJ+CePUeNZhN+2yDKd8GGTPGF0r1UHsLoU/877WFK9TAHImC1Cp1tZr9X7iHNDATZxn7a7geHEQXlASQ/Re342XV2FJpicVXQmTlbayUarjx/TOEzchTNANcSg9sX8PcQ2kLSVhZ+lsOJgwEyVjjK1Eh4zdrcAtQcO8Zwbga/KeA5qrneTpsUjvIuctOWf7GeY0mafYSlMxb9oZw5K5vmIMWGdhrOo0D8trRiHq5+soy3G1F0R1nR5S8mNlrpPxuZ9UtQjGG5P+Cx+MUq6NoslzDmjgdoKlVFsZYC4B+c7+JnEAycStRDWahiEmJbcjWmX/BYntRKxlMKT8nceVCSZRj0ccz16AsSb9jp2IUNsCgxqnsJzoDIyxhyv8kolXfry40BiJkrlES1wndiZ1XgM3KbZFLzoKYz2uFiChswbJyisViaMmIGMErbIK7bJd6w9vqhYXL90Tc2Zod9KyQ1WVEUSck1UR26L/83VH9XRsl9cTcLe+X2GsZEADkx1xjMvABNVHg9NCkgcMkOAqCrRoa/KWA5qlneAnpY40NtEveVN1s7GwlrXK07FYF8d8dkRpuwApUJlH+Ztv7bcrGjvHfMzMrsEgeCtx6ohzr4wHdqKDiBV+Cilh/4wIpn9iTnb5XmepfxyGCDJBgLl+WtVlFkjeMYMoVONh8zV6O3EOaOAmzrPYFYdgfR+pJnMdH04BqYTVaMx9OkXNEDTSqLUEy388B+u0ExEYBCj9ic1GL/bpHBiRVJE/1jrZX66W8Af4HFPSrj7QKN6Dyu9EnLeW6XjMZXci1I8fMXyHDOI0mQaumUPebGvgdoKP9A7q2SpJt9e1wFOqo18yx7d8ybksph0txIJbZpr11r6Yymk+bt2mR9WZSJt6OYLhSWxlDKzONyJSx0k1Z/kPoSJzoS+Ob0n8+KyGyr+1NXDAOKj4NxLBESrg0jDFj5jMp8XpsngRSIpq9SGXHNDAdckoVTGqqlKSbkfoHteftRJfcLpE2sGWqiod9c3EJS+vX3nAfCjuNsfPTKPKcEKqxnMw7mXUkRNRpWVWDkpcMzGr4yZYh+2I2gat6aqPAz2oZKaP4SU5WuLaMTLJcxq4STKOgOVqd1wDiEQpU68ALi3PDsJWrKtoVob+MbroL1vrHHvILnCce+u43sa6ulzMyw29urNB0D3TGnZI7YEr19sR1V+Occ0quizPNYckK3ICdp8seYX+TZQDGriJcqy1PF9HvpNOryWtzioXQXOzK+AiqSKOE7+zcr/Y7QAiXkupTuf+n51Y5krCUapyORGpIpvb34P2dtWrI5vM5fjBUOGSY1z5MaBU1jNCZq55s62BmyQfORViNro0YGwXinRUlVlG9XKbm7UbT3LV+OvfcacyU/qpLL3mtrjNqKXntteJZ5AmVkWUlnRhVDmSmMuzLdWUEC3krT4YxkfL6eNmrlNvu+OABq47PnUoRRWZEkdSlSFl5F7bb1+83E7OQzIcru2qti0CgONQBqx7RXTL5Orz0vKrqpf3Q/BqykwOaOAm+Vw4jjMvH8IMGNJQZa6Sai6K2tJBgMSOaOi5bVWFsdC1XTk35zYh3czjmG7yYqHsEL4qCiWj3fBBY9/NU0m8jAZu4jxL6ApOi9jDErmJHfyIKfdo/OJi150hqsgvIBDgScTOOhE1CifDEp1FOESwEnMtwyZnEK3jilky6yV6P0EOaOAmyDBZnNKW0ylyHFgCfVhlhNkP32VZRl5r/XUTI8txJ6dtHk1SZSa86BH1mw3Vjv3hCIBztE6+1eSBSqLSGBdsHdiz3x2hbeWA3k+UAxq4iXLMVJ6J4BpaxSkTuhUpkEsppxBKplqEOMEh26IszHliukWqLMGyTLzfzXDHXLK5VnwMVdmJaKHmagzmMbz1GlqNo+P6jrBk5BAuN2gHppakhdlah95PngMauMnzzpjrrGkdwDJHcrFiwpYpTDk9Ygfe45Ht0Q0RIlw9gCqzXX3WuqgZvLijASqy2opsLc/II6q7drQNDid00bT2gywgL6S3FMfSMszPrj59LjEOaOAmxq92pbfBQ0g61NMnt1hhPqbEpZSze3n5oo+Fm6Ib4piZK+f9zuIiGe9aAut9uDA+sLEq5s0Ur6w8TmeOwxVZLuR5/n4CCc4PkpWi0jon5phCHjkZ56x16H1nDmjgOvMoboltkH4y9pQGJs5rqpwtPjrY5AgaJmJzS7RC37O+SjBw3YkY2L8E4+K1lc4qsqzraARFjIT7pB3xY6SKPba6eG6GD7R0f7SrT59LjAMauInxq13pjfA+ovGJxFgDZsPopZC6K/Y2KVO1miu7EkngMLR0RVSZt2HsePvqynZTUtaLKe1f3RmN/LGei7fPONuTEAAvVd145dbhQ6BK9s4YYLp5kug2ybG1DDiIV5c+njgH7D+rideXVVcwvxIlymkACKN0GKNKa6wMz5PM4Jq4n8OF0C6YfjAk9rdGlRoLhMnr7H4pxagy01h1JjJHqky37BsXHDPPN9vVyXNnIbsFs1HaEWNu+adyHGHWi96tH69VUNGlRmJXnz6XOAc0cBPnWbsrmDliH6TusNxcI1VLX6QkZZpSMxE4/9hWb2RH5BgwHjHn8u/hHCEzSMQrJ49zjMmFt/jnBY3Dh+e8IYXKFQvM9TO9zmetYYDm4/RLHo2xurSu0wdbGu/M5fR25zkQ/y3qfN1ZUcPbWJ2dzhEkhtQdC1WRc7pW+it8g508pBgmuGhiX+uladmnz/FFSOHKAHw7opGNS4fSh9pKlNSDsZoDp5GoHr8JgEvjnbWs3u8cBzRwO8c/I1cTDTVSHf0CJNbAHh0VGeaj+jdA7mSoYd7i7x/jLvVqJ7seu5xAuwxZKJkw3Wls+/LnDeID3IvKqeQc5FLu3yP6Si3HvTLxHEYRmlLAAQ3cTjKVnkOvY6wppS6lzjAEmVundPn+/gwqrXX8q2r+pyeUiW/GSQKnKt+ZY+wns0DeMLrUmH+1q4tjWkYUqZw4mEKHjiQylQ9T7+xXTBfZ1a/PueeABq57XsUt+RqAux1TQyQapy4ZVqx0YKCx5llE+qiMOtbKf3NKH6yLW2Y97Ok+Je2FUI/vxoeCFnEn4uJeHLeqrMRMncOMjiQa7TgO1mqyE0eTP6+BmzzvYlfSBfFlOO/ToZ50CZakZGpSlcvg/647KHYA5E4aJOeDb0USOC5+7QZUsc643BgIK/YtY3qJ+04uN1KtOl3GMS1zU22ANdlKXGrkPENNjnpbPYFynD+m84em1HBAA9cjvj6B9KaftlpaOe3DsSotzFYiyOevrnAtjbjC+xvnDfRU+jK4nxkgKdHpteVEHA78Fuv9voQ5YW5bieNj5riCADe8qZ6BViE/Ytayet8bDmjgesNHY9z3CnI4HWhdN+jrGKNyiRCVJxVTxjysyPUUryucXhmtyJ0cr7zTcaq6dP7f06ohOJX/C8a1T8PPWWUVZ0bJSzE0kEuS/An3xphfFcCd2tHn3XNAA9c9rxxLPoSVCNbDvZEqIkP1rj+q1FixTnXhD7BqwDvI7OhGnQwjWv1fcOLwkqiuq9ReaxtcMvR+SFvmqLISDVtMyH5MWVTacpzP/MxOieas9ej9xDmggZs4z+JewekPhs5RmpHOxdTQl2H8UTldcFrowqW7BQ1WCu2zXRuUXrRce0ns4wZIRjt6B6C9bVVl3LZ5b5z3lffH8Tv9p918jOza1eecOaCB68yjhEo8jpSqnK+l5Zj+yz+EgSneYtD09f3Sa7uNhbDtGuEU0mp4aHlJuxFI/DGkaLyPBqXxTzB99QrGtaoyXD/o+qNLjUXP2C+W4zKbbr2+vLyXbKxLA9fjp85g9zvWVIp1rZKHEUN3YbqFCcRpvLES1covvLLbWD3Aeo77lF70zvJaijG4nZZfht1Z6S20x8ySTFKnAi3XQbp1XC9j/VveEy3Ov1hXhbWTOtZlrVvve8MBDVxv+NiulvWInOGLLFXm8QiU//mJfeLmlmLupgnP7xS//KiqXT3cIXBe29V+pYEOhZI8wNUXGOgviV5Of0Y+qqvf3m9Mb6k+FjS23YhppPMx/cPkeDR0/fTDg8bHReVNJevWv95yQAPXW37GansS00OPfVobCzbntA6DCJgSRkV0mbwBUm7q63uM9XtkGcMwBWeGVBBDA6WBitM3P/mwUlzz9j5jPSFVe5yXnoulTri0JzUJflQe2lQj/grJzGVUNKWPA+q3KH3t+7YlvtR3Y4xIdZNxsSS+8PMBXukWaBy0/KPEO+7vO2LSl6o0Y19TQQQrA+z5kfnSa3vEnWviu2RSJb72yFJxo8k18lksj/Kbj6uU6nYq+qvrbONA27Br8Zbo29V2Tm95wAFOCz1yWl/Ds0g68DPtzA+RJ5lzvnZMHws3xAuHFoofQxVNFVH15UugcmOUbTLb47cxtfUdGKOYj4rEpOrMffW+iyU5ZT36t5McmDEihtfYhtDA7SRX41/OjBCPIFyPkUMSvLTCTntjn6MTBB+QHbjjt+rNGS4T+j+IVroG0laq+UwTezu8v5jLSjUO9qZlXUsHDpiAq1XlDtzx/gA9jqa/uVf8ESqpDP87G/OfS6cMdMw20ZWgpcRnfPBNMEYRtOzLM1CPb3rvgHgXklaD1vt3xW2NbcANiGVuL9LlEucAF4z+1vL9GBNWx/yUmS3i5XMGiO9CBVUtnpV4K95cQV/mS+HL/ChU/KnwQ6b1mMN0Lr59M0BLq7mmruVAG3Aj4vWu7Yr/W+c48ha8+NdgukXG7xIk947vI5aeO1AwEL2riZFID5xaLhZOKDfia6mq0z3y++g3x+VerDnU1ffYLdu3CNY24Ia1xE3HA6V6ySCD01/YacS2ynV1TulbIF46e4D4w+n9EGmT2yEQP5V94wIMDEO8HQtj/+OsAWLW4SWGrzWl7GqMY+eu2C/uwxyzKqtjKvul6zZxwCJYO+ZYMZXVm6njABPKnfPybvFVqKLMeCENP1cgIP2LsCS/ibxOP4PvLzM5porokslxLIFKv+MhSOrOwAESE+D9bmONeBDqMed79Xg2ypdM+d/6mFq7s2TLUlggJmVK57KlH4zfvQfqMoPRmUHDTHSQ4Fq2zCjBIAbV6gHm8k7btBIPR1K7U/sViCtGlIgzBhS0Cz2kIW0Z2mLCdbapKUM4YLIos0ftgfvIlkkiKJZmSFezqhuUdFw4jA4aM7GqARe7kw8HGqvhxFEBKfgBgg1o2WVUEYPyGczANWpZJmJarJar5bEOjqH5YWCSc46hJwKwXMu3BGliKXFJvJbWbk7z3AvAvrc/GiRhnNT/MoEDC8SMEfPNHZHvRtuxxVtYYF7bAb2Vbg6MQuQNs0pw3peSseNDivaIluqdSLTOpOPRBbQJQayqALDS8aMP/voBtPxVEbBqJABgLikGy69EfLBeWU/FqS491gG07I36ndAqc5c+Kflg6NV0RGmu4bU0BdKyHAAsNknKRDtJY1M9rGF7EdL3NmJtuTI91eE6IFiPYRPlZprKW1Rk2araOBUSCwQ92/R4V/Ip7b+UnZw+op8yp484l8oUqEdAGh8BqzNX0xvbG4tzYZveWNbFsekfXQXHf047McSQ9TASiEYxhvOp0tCk/SZ1g/YcCIvJ8QqoJa4srdVmyYmM/uX4mIEL/CVFJWvE1v84WlL/z0gOcM6WwnPWiGXx+mcPXF4VBS+35vGfJs0BzYEUccAFYGXLzsCVJfnbBmKOjs8wn+rSba3Sdyn7u13jFi+kLu0/HSuk85ONhLX2MTHgWq/OlH09jZUpT6I79ENppe0OHTf3UT1PYC7RHbYT+FJ1h9vRfUwhB6R0S2ET6ajaH8AlpzJJ/UnHk9NtJMcBn3zk/QNcWuE0aQ7Yc8A374g/xrjyYWnHEckJ/WvlADWy6SMmWw93133/SFw+AS11u+t7mPp+W8LiUt9galvwl8Qlr7SFObVvTPes3ReWZDPr/SVxeWdR44NvxjLmh6W3k+KA70BLLvhP4spnq901JSey+deXoOUD9S9weXcavORCtpJvQcsH6m/gyldWA1hywv+/Cfj7dmdmZAdw5RMigOljrX2bJUf88Sudbxwiavxxs9G7yC7gmp9cVApLLmROwIS5j3o7PgeSdM6PX6E+ozmgOaA5oDmgOaA5oDlg5cD/A+qplueDZ5IZAAAAAElFTkSuQmCC;fontStyle=1;fontSize=22;" vertex="1" parent="uLFq85hj9WoVxSmZYbQs-9">
          <mxGeometry x="124" y="112.5" width="238" height="132" as="geometry" />
        </mxCell>
        <mxCell id="uLFq85hj9WoVxSmZYbQs-12" style="edgeStyle=orthogonalEdgeStyle;rounded=0;orthogonalLoop=1;jettySize=auto;html=1;strokeWidth=3;" edge="1" parent="v_wZgBtS-z9SW-eihl9p-14" source="uLFq85hj9WoVxSmZYbQs-10" target="uLFq85hj9WoVxSmZYbQs-9">
          <mxGeometry relative="1" as="geometry" />
        </mxCell>
        <mxCell id="uLFq85hj9WoVxSmZYbQs-10" value="&lt;font style=&quot;font-size: 22px;&quot;&gt;Public subnet&lt;/font&gt;" style="points=[[0,0],[0.25,0],[0.5,0],[0.75,0],[1,0],[1,0.25],[1,0.5],[1,0.75],[1,1],[0.75,1],[0.5,1],[0.25,1],[0,1],[0,0.75],[0,0.5],[0,0.25]];outlineConnect=0;gradientColor=none;html=1;whiteSpace=wrap;fontSize=12;fontStyle=0;container=1;pointerEvents=0;collapsible=0;recursiveResize=0;shape=mxgraph.aws4.group;grIcon=mxgraph.aws4.group_security_group;grStroke=0;strokeColor=#7AA116;fillColor=#F2F6E8;verticalAlign=top;align=left;spacingLeft=30;fontColor=#248814;perimeterSpacing=5;" vertex="1" parent="v_wZgBtS-z9SW-eihl9p-14">
          <mxGeometry x="130" y="73" width="477" height="364" as="geometry" />
        </mxCell>
        <mxCell id="uLFq85hj9WoVxSmZYbQs-14" value="MuleSoft Experience API" style="shape=image;verticalLabelPosition=bottom;verticalAlign=top;imageAspect=0;image=data:image/png,iVBORw0KGgoAAAANSUhEUgAAAO4AAACECAYAAACXgRceAAAAAXNSR0IArs4c6QAAAIRlWElmTU0AKgAAAAgABQESAAMAAAABAAEAAAEaAAUAAAABAAAASgEbAAUAAAABAAAAUgEoAAMAAAABAAIAAIdpAAQAAAABAAAAWgAAAAAAAAFKAAAAAQAAAUoAAAABAAOgAQADAAAAAQABAACgAgAEAAAAAQAAAO6gAwAEAAAAAQAAAIQAAAAAyiTvzQAAAAlwSFlzAAAywAAAMsABKGRa2wAAIsdJREFUeAHtXQmYFNW1vt2zMQsDw7CDIKKoILiigs8nuKDGxKgRoxLZkhDFaGJc8mL8BKKJMcnTxJcYg4qCMYkao1mMu2A0IriACIggEllkZ4bZt+5+/189t6em5nZVdU91T0/1Pd8307XcuvfWqfrrnHvuOecKoUlzQHOg23Eg0O163M07PGfOnLyWlpZ+gUCg4eGHH67A7US6wy1dddVVxQWBgpGhSKgskhPhe7Ortrb206eeeqqpO/Tfb30M+u2GMv1+GhoaSkVYXB5piVwxffr0I+bOnVuS4X0OXHnllWU5OTlnhgKhB0RQvIJPzVJ8eG4pLy/vneF99233cn17Zxl6Y/n5+bnhlvDYsAhPDwaCO+tr61fNnjn7XwDES7m5uesXLlzYnCldnz179mAREl9EX78CsJ4cEREN1Ax5OBq4XfcgqO0MARiGRCKRCwCQBU3hprUAyxPhcPglAHxrRUVFPVRRAjkt6vTUqVNz+vXrV1hXVzcCEvWr6Mc0tD0Mf1ozAxMyiTRw0/w0ANJmwGB3IBRoAWgl/zlmLAQ8x4dD4fHYrm1uav6kuLh41cyZM98PhoPvNoYa1z3++ONVXnd3/vz5wa1btw5Ev8YHIoEJdbV1E9DGOOzHla4BEWhB2T3Nzc0tXvdH1+eOA9o45Y5PXpYKTJs2rSckKgFyUyQcOQO/BLDyWRAkONeAv12Qgi/miJzFJbUla+958p4G7CcliQnWPXv2FNXX15+M+r8ByToJ9ZfhLx9/SukKIEeCwWAjevkyPjr3osfvLlq0qAblk+oDrtPUCQ4oX5ZO1KcvTYADN9xwQyHU4ZOAiSsAoMm4dCT+8uyqMIAcEGsgrf8OIL0Cqbfqscceq7W7pvVcYO7UucX1JfUnQlpOQZsXAoSjiUeHa6vxgViPdl+NBCJP79q1a93zzz/f6HCNPp1iDmjgppjBbqrH2DIfavFgAJGAuhpS+HgX11HSVQSCgQ8ArDuGDRv2BiSpUnXF8Vyow6dDsi6AfDwG11ENtn32qPMgyv4dYF0C7WDVxo0bK5ctW6as30VfdRGPOWD78DxuS1fnggNQo0sBlPMB4KsAnBMh6fqaxsLxaggDaI8BissBznbgwvG8oAhODEfCX8PFds87hLYqANSNKP9cbiT3iYWLF26O16A+3rUcsHuQXduzLG+dAC4IFowKB8JnAW5TwY6x+OMY1GuqR/2rUOmz+HsDwN+0ZMmSA9jWY1evOe1hfRq4HjIzRVUFoErn9ezZ82SAajrGp5MhgftDOha5kMTWLhGM9HSqgSTejuv/BseKJ6uqqj7CtFPIWljvZy4HNHAz99koe3b11Vf3h/fVaAD4aIDvaIBvFGTjMEjNQVCvS3EsZmzCPoFK49IWlKPauwGH1uZF8tY1Rho3uzRqKfuhD3YtBzRw08R/SM1CSM3TIDVnQVo2BHOC927evHlDZww+dJgYOHBgbmVlZW5eXl4wWB8saspr6gUjVxH+Io2Njftxe1UwfLXAet0yZsyYFhiqwgnecgD+1bktDS0nYaJoDryoDsGH4DPU8SZ+X4S3195M8vZK8N66bXEN3NQ/ugCcKIYDrPMh7WggymltshK/L8Aq/DTU1bcffPDBHQBCxowr+VEA4A8JRoKnRYKRr8DSPRn9tTplVEHS/xPHF8GgtkwDuPXJpuFHAzfFTAYASkqKS14EaOlwYeU3gdqAo58BtP8AgBc99NBDH6W4S7bV0zkDU0dj0d9vAKzno/Bg/PXAn7Xv5noOQoO4o7q6+pd6rGxmS+q27R5G6lrNoppnzZr1cwDgJpe3XAsArwBEngmGgisbw43bioqK9qVSkuHDkl9YWNgPH43hkVDkVLR/MdqnUwjB6ppwXRhaxdcXPbroUdcX6YJJc0ADN2nWOV84Y8aMkXihP4TxqNC5dLsStPBSld4BMGwI5ARWAkjLWRfcDKvblUxi57rrriutqak5HgauCRiz0kd5FIxXQ1BVL/zFjFtJVF3R3NI8Dj7V25O4Vl+SAAekk3sCl+iibjmQF8y7HIHnhQCF20tkOY6Dy/mHa8dBEl5GRRWSu3bWzFmf4PhqgI0fhE/DwfB2SMuKQFMgFMmPhOECGYGhKhAKhQI4novfvgD8UMQAH4brOBd8XHVV9Sj85st+yV8c6xShnTKMdWejkh91qiJ9sSMHNHAdWZR8AYD2HEjK5CswXxmtphj1HYvDxxpgo76E46GWUBPkZLNoEc2I8Q0hwigHwM7F8QKUyPOsD+b+KLbZDryupuCUBq6CP14e0sD1kpsd66KESwfRo4p/BqULqLI98y++GhPN+3o7NRwIpqZaXSs5AAD1yTZOQF3WdpM0PHQN3DQwWTehOeA1BzRwveaork9zIA0c0MBNA5N1E5oDXnNAA9drjur6NAfSwAEN3DQwWTehOeA1BzRwveaork9zIA0c0MBNA5N1E5oDXnNAA9drjur6NAfSwAEN3DQwWTehOeA1B7Lb5fGRLZO8Zqi5vl0fLDbvZs92ivkaY+SsEcti21m2kV3uaXyhgmISIm3OgHP+pCx71n6+3QWIflomsgjI2QFcAjZHzNNg9TN2Y/e2QMwYMT+259MN/wN3yZalGrA+fXvj35bvwetf4GopG/+1zpYzYTHZr+qzP4EbHcsuzZb3U9+nLQd8KX39OR0UFBq0tu9yVp2cJ/gh9xn5D7gc02rSHDBzwIcfcn+pyou3zMfzmmd+Zn7c5kPLCwZET6zDV5IXEEU5AYFd/AZFPtLMVTQhd2MEiwThX3VzRFQ1h0VjCAeymQKYLpo+YrJfWOA34Pr67SzODYghRbmiX4+gOAS/R/bKEyN75hrHgF8xtDhX9MkPitUVTaIZoCWAPz7YLD7C37bakNjXGBI760PiII77mlHx0OkjY5V/PKei0jbeI+uWx/lVLYA0/e8BPcRXDy3GbwGAmSMI4Hwcj/fVPQPlzUSQEsh1LRGANyze398onvhPrVi2q8EAd9aAmHP5ApLXBxTv2Xe/W1uMBel8QvnQe88c2ENcMLRIfGV4kRhUKJcb8vYGP4f0fWFHvfjbtjrx1t5Gsbch5G0DmVjbjBG+eOd9cROG1dAHBohCSNHJAOx9J5eLYcU5xjjW+u5TctZjvMq/XQAe1eCNVUipjDX4qArXYEw7oiTXkMj9CoJibFm+GI59joN74I8S3PzQ+bVrQZ2fVLeIBzZWiz9uqRX7UQ8O+ZN8oi6bn6G7B5WJpnX6H3dzo9TcI3uK2Yf3FCeWx9Ijx54HMfTOvkbx0uf14r0DTWIjwLqjdawaK2SzQdV6IKT2iJI8cUKffHHWoB7ilH4FoheMW2ai/epjfAQe21wjfv9pjdhe50MJTCNVSCww33eXbyfhY+0OuNoLKSXPlpbgo2Fguv+UcmMca24Ew1EYlFrE81Bl71l/UGyGRPSShsK4Ne2wYmPsfDgMXLRQm+ltqM53rT0oXsbHgtJdU4o5wA9KRLzu1s/aHrgasCl7WrlA7b0nlYkrR5SIPlBpzUT193vvHhArAZ4DsACnivjwSwDY4yGFrx7VU1w8rMhQp2V7nEb682d14hfrDhoquTyuf1POAUdvr/jAzZI50ZQ/AkUDoyFl/w/j2EkYz1LqSvqwskn8ZM1B8SdYfNNNGPoKWqOvP7rUGGeXmiTwcnxAfvRBpXgNVmjODWtKCwdswWt6bUyd0aA1McPbzUuHF4t7x/fB3GtOzEhEg9NtqyvF/RuqRA115C4kGrAoeb9/TC8xDoYt+YLsgcV5Hvr4OIxX1ZDEmtLAARunkY7zDBq0KXsiVEcJ2gEwFElAUJpdsmyPoZKmUCt2fU/8bqytbDYMYQTxkaV5hiW6OBcWwIHRZX7XQ5Wv7eIPjOsb6t4FDxUXfzcgnv3VMuttyPen7biP5kPbbqprtzgve+PoUnEzpFgZPJtIlLIPbaoRN793IGNBUIB+XwNr9w3o+yHwyuLLQjsVjWW/+qhK7PCj1dl4Ohn2TzGF1V7iRqXtpAzrdrfvzrxje4vvjW4DbSNAe+2KA+JuWG0bMthiy66thJcVjWV0r6S7Jcfkp/brYcwxr8WYvArzxppSzIGgOFQ886vF5lbamzO7+Vyo+cYyYZsGn28fVSq+BRW5d6ukpf/w9Df3icWYK+0Ohh7aouhddct7FeLNPY2GxOV9XYf74rxzX4tFPBP47rs+MD+axX+iDbiWE767+S64oWmHlYibx5QiKCCq2NDwdNnre8VfttYaqnK8Lh0GT6ejIOHSRcOgBnM+GX4acYl+zdeu2G/4N1PGUvL+YGwvzAWXxD5KcS/WJzznQBtwo95HnjeQrRVybpTjWjk2pCV2zvJ94o09DYZ7ooovBM43jugp1l80RDwysW+7qSJVeS+O0atqxsgS8eqUgeLuE/sY7pHx6l2DqKN5H1QIGtQoiWm8Ing5rcXxsKYUciAaIBFroA24sUN6o7McKIf6eNcJZYYU4+tMA+zNUDXpzB8vLpYAWnbuILFwQrkBglPhkkg1O9V05qBCOIEUG4EM38Uc7sMT+orTMZ8bD4b/hrp855pKwTln0gBoEz8EeMeW5cW9JtX3kI31m4E7LxsZ4PU9U/DcOra3OKVvQSxI4NeYn33qs9q41mPG1L5x3iBxWv+Cdi//fBi1DoXanCo6vGeeuAzRR1ItZ9/px3wfpqy+iMikeEKUY176M3/ealU+qbxAzME4nvHAmlLEAUsecDNwU9RidlU7BRLsgqGFsXEfJRSBW4E4WBXRT3gp1FSq1lbi1BH9mFNBVHPZz6lwCLHScejLL+COSWcR1biXY9xff1wtXjT5MU/HWHcitATWqyn1HNDA9ZDHdBNklA+NSyRakG9fXSG2IvsEX3YrDYX31HNnDbCVVGdDAl4FUHhNEwCymRjbMsxPRaPgeHHHcb0Nyas6T5X/p5jOehfTRbw31nMTDHFH4DpNqeeABq6HPJ4+slicALWR+aBIv4VUokGHzhZW4jTK05P6C6qrauhEr2BdPz6+t+jfapm21pPMPq3IlyOjBiWrHRG8ND4xRlhFjAP+E1wgtyOKiUSV+RK4S+opIhW3vD2mgesRPwmsiw6JGnlY5TuQRH/YUoOg9I4qMoH66Gn9EHtbEHccae7WYDg+3HNSH/OhpLf5IaAU5zSOGzoZY3UayY7prQY556NX7GuKzUlTOxgGjcPuY+SmXV3GngMauPb8cX32Uhh5juwV9SyigL0f0vY/NS1KFZlTPpRicbTUDm2y3EWQZByTdpbGI1Cf7dOK7Za+fEgRxrtFHcIPeT19lh/dXC0+bY0XpqHtC0OKRJl2zHDL3qTKaeAmxbb2F3Fsy/xQgwqjY1tK25XIWKFyxOcY8LZxvURhAsBha0Uo/3PMs1oD3tv3xH6PuasugcGJ49tEiB8OWo0nY5pIZWmmlZljXRlw/zUE6NM90v2nIZHe6LLkgAauB+8Bp1AoaaQEXfRJjdgKaauiBZjiMUcHqcqojhEEzCVFg1EyxPBaxtvOPtydimxtg6CfDmPWmF4dVWb6ND+NgHs51uXY+JS++cbHxlqP3veGAxq4HvDx3MGFgqlgSAx5o7RVxdUyzSrHl8l6GXGqhWNIeiolSmMxRv0mpKaMTkr0epbnfY4HIKXxzVwH82Ex4RydTfiROR/qcp+C9jEs5vJ6u3Mc0MDtHP8EpQsNN3LM+M/t9Ub2RVW112KqqLQ12EB13s2xXrj+ruPLEpJmtPJ+CePUeNZhN+2yDKd8GGTPGF0r1UHsLoU/877WFK9TAHImC1Cp1tZr9X7iHNDATZxn7a7geHEQXlASQ/Re342XV2FJpicVXQmTlbayUarjx/TOEzchTNANcSg9sX8PcQ2kLSVhZ+lsOJgwEyVjjK1Eh4zdrcAtQcO8Zwbga/KeA5qrneTpsUjvIuctOWf7GeY0mafYSlMxb9oZw5K5vmIMWGdhrOo0D8trRiHq5+soy3G1F0R1nR5S8mNlrpPxuZ9UtQjGG5P+Cx+MUq6NoslzDmjgdoKlVFsZYC4B+c7+JnEAycStRDWahiEmJbcjWmX/BYntRKxlMKT8nceVCSZRj0ccz16AsSb9jp2IUNsCgxqnsJzoDIyxhyv8kolXfry40BiJkrlES1wndiZ1XgM3KbZFLzoKYz2uFiChswbJyisViaMmIGMErbIK7bJd6w9vqhYXL90Tc2Zod9KyQ1WVEUSck1UR26L/83VH9XRsl9cTcLe+X2GsZEADkx1xjMvABNVHg9NCkgcMkOAqCrRoa/KWA5qlneAnpY40NtEveVN1s7GwlrXK07FYF8d8dkRpuwApUJlH+Ztv7bcrGjvHfMzMrsEgeCtx6ohzr4wHdqKDiBV+Cilh/4wIpn9iTnb5XmepfxyGCDJBgLl+WtVlFkjeMYMoVONh8zV6O3EOaOAmzrPYFYdgfR+pJnMdH04BqYTVaMx9OkXNEDTSqLUEy388B+u0ExEYBCj9ic1GL/bpHBiRVJE/1jrZX66W8Af4HFPSrj7QKN6Dyu9EnLeW6XjMZXci1I8fMXyHDOI0mQaumUPebGvgdoKP9A7q2SpJt9e1wFOqo18yx7d8ybksph0txIJbZpr11r6Yymk+bt2mR9WZSJt6OYLhSWxlDKzONyJSx0k1Z/kPoSJzoS+Ob0n8+KyGyr+1NXDAOKj4NxLBESrg0jDFj5jMp8XpsngRSIpq9SGXHNDAdckoVTGqqlKSbkfoHteftRJfcLpE2sGWqiod9c3EJS+vX3nAfCjuNsfPTKPKcEKqxnMw7mXUkRNRpWVWDkpcMzGr4yZYh+2I2gat6aqPAz2oZKaP4SU5WuLaMTLJcxq4STKOgOVqd1wDiEQpU68ALi3PDsJWrKtoVob+MbroL1vrHHvILnCce+u43sa6ulzMyw29urNB0D3TGnZI7YEr19sR1V+Occ0quizPNYckK3ICdp8seYX+TZQDGriJcqy1PF9HvpNOryWtzioXQXOzK+AiqSKOE7+zcr/Y7QAiXkupTuf+n51Y5krCUapyORGpIpvb34P2dtWrI5vM5fjBUOGSY1z5MaBU1jNCZq55s62BmyQfORViNro0YGwXinRUlVlG9XKbm7UbT3LV+OvfcacyU/qpLL3mtrjNqKXntteJZ5AmVkWUlnRhVDmSmMuzLdWUEC3krT4YxkfL6eNmrlNvu+OABq47PnUoRRWZEkdSlSFl5F7bb1+83E7OQzIcru2qti0CgONQBqx7RXTL5Orz0vKrqpf3Q/BqykwOaOAm+Vw4jjMvH8IMGNJQZa6Sai6K2tJBgMSOaOi5bVWFsdC1XTk35zYh3czjmG7yYqHsEL4qCiWj3fBBY9/NU0m8jAZu4jxL6ApOi9jDErmJHfyIKfdo/OJi150hqsgvIBDgScTOOhE1CifDEp1FOESwEnMtwyZnEK3jilky6yV6P0EOaOAmyDBZnNKW0ylyHFgCfVhlhNkP32VZRl5r/XUTI8txJ6dtHk1SZSa86BH1mw3Vjv3hCIBztE6+1eSBSqLSGBdsHdiz3x2hbeWA3k+UAxq4iXLMVJ6J4BpaxSkTuhUpkEsppxBKplqEOMEh26IszHliukWqLMGyTLzfzXDHXLK5VnwMVdmJaKHmagzmMbz1GlqNo+P6jrBk5BAuN2gHppakhdlah95PngMauMnzzpjrrGkdwDJHcrFiwpYpTDk9Ygfe45Ht0Q0RIlw9gCqzXX3WuqgZvLijASqy2opsLc/II6q7drQNDid00bT2gywgL6S3FMfSMszPrj59LjEOaOAmxq92pbfBQ0g61NMnt1hhPqbEpZSze3n5oo+Fm6Ib4piZK+f9zuIiGe9aAut9uDA+sLEq5s0Ur6w8TmeOwxVZLuR5/n4CCc4PkpWi0jon5phCHjkZ56x16H1nDmjgOvMoboltkH4y9pQGJs5rqpwtPjrY5AgaJmJzS7RC37O+SjBw3YkY2L8E4+K1lc4qsqzraARFjIT7pB3xY6SKPba6eG6GD7R0f7SrT59LjAMauInxq13pjfA+ovGJxFgDZsPopZC6K/Y2KVO1miu7EkngMLR0RVSZt2HsePvqynZTUtaLKe1f3RmN/LGei7fPONuTEAAvVd145dbhQ6BK9s4YYLp5kug2ybG1DDiIV5c+njgH7D+rideXVVcwvxIlymkACKN0GKNKa6wMz5PM4Jq4n8OF0C6YfjAk9rdGlRoLhMnr7H4pxagy01h1JjJHqky37BsXHDPPN9vVyXNnIbsFs1HaEWNu+adyHGHWi96tH69VUNGlRmJXnz6XOAc0cBPnWbsrmDliH6TusNxcI1VLX6QkZZpSMxE4/9hWb2RH5BgwHjHn8u/hHCEzSMQrJ49zjMmFt/jnBY3Dh+e8IYXKFQvM9TO9zmetYYDm4/RLHo2xurSu0wdbGu/M5fR25zkQ/y3qfN1ZUcPbWJ2dzhEkhtQdC1WRc7pW+it8g508pBgmuGhiX+uladmnz/FFSOHKAHw7opGNS4fSh9pKlNSDsZoDp5GoHr8JgEvjnbWs3u8cBzRwO8c/I1cTDTVSHf0CJNbAHh0VGeaj+jdA7mSoYd7i7x/jLvVqJ7seu5xAuwxZKJkw3Wls+/LnDeID3IvKqeQc5FLu3yP6Si3HvTLxHEYRmlLAAQ3cTjKVnkOvY6wppS6lzjAEmVundPn+/gwqrXX8q2r+pyeUiW/GSQKnKt+ZY+wns0DeMLrUmH+1q4tjWkYUqZw4mEKHjiQylQ9T7+xXTBfZ1a/PueeABq57XsUt+RqAux1TQyQapy4ZVqx0YKCx5llE+qiMOtbKf3NKH6yLW2Y97Ok+Je2FUI/vxoeCFnEn4uJeHLeqrMRMncOMjiQa7TgO1mqyE0eTP6+BmzzvYlfSBfFlOO/ToZ50CZakZGpSlcvg/647KHYA5E4aJOeDb0USOC5+7QZUsc643BgIK/YtY3qJ+04uN1KtOl3GMS1zU22ANdlKXGrkPENNjnpbPYFynD+m84em1HBAA9cjvj6B9KaftlpaOe3DsSotzFYiyOevrnAtjbjC+xvnDfRU+jK4nxkgKdHpteVEHA78Fuv9voQ5YW5bieNj5riCADe8qZ6BViE/Ytayet8bDmjgesNHY9z3CnI4HWhdN+jrGKNyiRCVJxVTxjysyPUUryucXhmtyJ0cr7zTcaq6dP7f06ohOJX/C8a1T8PPWWUVZ0bJSzE0kEuS/An3xphfFcCd2tHn3XNAA9c9rxxLPoSVCNbDvZEqIkP1rj+q1FixTnXhD7BqwDvI7OhGnQwjWv1fcOLwkqiuq9ReaxtcMvR+SFvmqLISDVtMyH5MWVTacpzP/MxOieas9ej9xDmggZs4z+JewekPhs5RmpHOxdTQl2H8UTldcFrowqW7BQ1WCu2zXRuUXrRce0ns4wZIRjt6B6C9bVVl3LZ5b5z3lffH8Tv9p918jOza1eecOaCB68yjhEo8jpSqnK+l5Zj+yz+EgSneYtD09f3Sa7uNhbDtGuEU0mp4aHlJuxFI/DGkaLyPBqXxTzB99QrGtaoyXD/o+qNLjUXP2C+W4zKbbr2+vLyXbKxLA9fjp85g9zvWVIp1rZKHEUN3YbqFCcRpvLES1covvLLbWD3Aeo77lF70zvJaijG4nZZfht1Z6S20x8ySTFKnAi3XQbp1XC9j/VveEy3Ov1hXhbWTOtZlrVvve8MBDVxv+NiulvWInOGLLFXm8QiU//mJfeLmlmLupgnP7xS//KiqXT3cIXBe29V+pYEOhZI8wNUXGOgviV5Of0Y+qqvf3m9Mb6k+FjS23YhppPMx/cPkeDR0/fTDg8bHReVNJevWv95yQAPXW37GansS00OPfVobCzbntA6DCJgSRkV0mbwBUm7q63uM9XtkGcMwBWeGVBBDA6WBitM3P/mwUlzz9j5jPSFVe5yXnoulTri0JzUJflQe2lQj/grJzGVUNKWPA+q3KH3t+7YlvtR3Y4xIdZNxsSS+8PMBXukWaBy0/KPEO+7vO2LSl6o0Y19TQQQrA+z5kfnSa3vEnWviu2RSJb72yFJxo8k18lksj/Kbj6uU6nYq+qvrbONA27Br8Zbo29V2Tm95wAFOCz1yWl/Ds0g68DPtzA+RJ5lzvnZMHws3xAuHFoofQxVNFVH15UugcmOUbTLb47cxtfUdGKOYj4rEpOrMffW+iyU5ZT36t5McmDEihtfYhtDA7SRX41/OjBCPIFyPkUMSvLTCTntjn6MTBB+QHbjjt+rNGS4T+j+IVroG0laq+UwTezu8v5jLSjUO9qZlXUsHDpiAq1XlDtzx/gA9jqa/uVf8ESqpDP87G/OfS6cMdMw20ZWgpcRnfPBNMEYRtOzLM1CPb3rvgHgXklaD1vt3xW2NbcANiGVuL9LlEucAF4z+1vL9GBNWx/yUmS3i5XMGiO9CBVUtnpV4K95cQV/mS+HL/ChU/KnwQ6b1mMN0Lr59M0BLq7mmruVAG3Aj4vWu7Yr/W+c48ha8+NdgukXG7xIk947vI5aeO1AwEL2riZFID5xaLhZOKDfia6mq0z3y++g3x+VerDnU1ffYLdu3CNY24Ia1xE3HA6V6ySCD01/YacS2ynV1TulbIF46e4D4w+n9EGmT2yEQP5V94wIMDEO8HQtj/+OsAWLW4SWGrzWl7GqMY+eu2C/uwxyzKqtjKvul6zZxwCJYO+ZYMZXVm6njABPKnfPybvFVqKLMeCENP1cgIP2LsCS/ibxOP4PvLzM5porokslxLIFKv+MhSOrOwAESE+D9bmONeBDqMed79Xg2ypdM+d/6mFq7s2TLUlggJmVK57KlH4zfvQfqMoPRmUHDTHSQ4Fq2zCjBIAbV6gHm8k7btBIPR1K7U/sViCtGlIgzBhS0Cz2kIW0Z2mLCdbapKUM4YLIos0ftgfvIlkkiKJZmSFezqhuUdFw4jA4aM7GqARe7kw8HGqvhxFEBKfgBgg1o2WVUEYPyGczANWpZJmJarJar5bEOjqH5YWCSc46hJwKwXMu3BGliKXFJvJbWbk7z3AvAvrc/GiRhnNT/MoEDC8SMEfPNHZHvRtuxxVtYYF7bAb2Vbg6MQuQNs0pw3peSseNDivaIluqdSLTOpOPRBbQJQayqALDS8aMP/voBtPxVEbBqJABgLikGy69EfLBeWU/FqS491gG07I36ndAqc5c+Kflg6NV0RGmu4bU0BdKyHAAsNknKRDtJY1M9rGF7EdL3NmJtuTI91eE6IFiPYRPlZprKW1Rk2araOBUSCwQ92/R4V/Ip7b+UnZw+op8yp484l8oUqEdAGh8BqzNX0xvbG4tzYZveWNbFsekfXQXHf047McSQ9TASiEYxhvOp0tCk/SZ1g/YcCIvJ8QqoJa4srdVmyYmM/uX4mIEL/CVFJWvE1v84WlL/z0gOcM6WwnPWiGXx+mcPXF4VBS+35vGfJs0BzYEUccAFYGXLzsCVJfnbBmKOjs8wn+rSba3Sdyn7u13jFi+kLu0/HSuk85ONhLX2MTHgWq/OlH09jZUpT6I79ENppe0OHTf3UT1PYC7RHbYT+FJ1h9vRfUwhB6R0S2ET6ajaH8AlpzJJ/UnHk9NtJMcBn3zk/QNcWuE0aQ7Yc8A374g/xrjyYWnHEckJ/WvlADWy6SMmWw93133/SFw+AS11u+t7mPp+W8LiUt9galvwl8Qlr7SFObVvTPes3ReWZDPr/SVxeWdR44NvxjLmh6W3k+KA70BLLvhP4spnq901JSey+deXoOUD9S9weXcavORCtpJvQcsH6m/gyldWA1hywv+/Cfj7dmdmZAdw5RMigOljrX2bJUf88Sudbxwiavxxs9G7yC7gmp9cVApLLmROwIS5j3o7PgeSdM6PX6E+ozmgOaA5oDmgOaA5oDlg5cD/A+qplueDZ5IZAAAAAElFTkSuQmCC;fontStyle=1;fontSize=22;" vertex="1" parent="uLFq85hj9WoVxSmZYbQs-10">
          <mxGeometry x="137" y="117" width="238" height="132" as="geometry" />
        </mxCell>
        <mxCell id="uLFq85hj9WoVxSmZYbQs-23" value="" style="sketch=0;points=[[0,0,0],[0.25,0,0],[0.5,0,0],[0.75,0,0],[1,0,0],[0,1,0],[0.25,1,0],[0.5,1,0],[0.75,1,0],[1,1,0],[0,0.25,0],[0,0.5,0],[0,0.75,0],[1,0.25,0],[1,0.5,0],[1,0.75,0]];outlineConnect=0;fontColor=#232F3E;fillColor=#8C4FFF;strokeColor=#ffffff;dashed=0;verticalLabelPosition=bottom;verticalAlign=top;align=center;html=1;fontSize=12;fontStyle=0;aspect=fixed;shape=mxgraph.aws4.resourceIcon;resIcon=mxgraph.aws4.transit_gateway;" vertex="1" parent="v_wZgBtS-z9SW-eihl9p-14">
          <mxGeometry x="1011" y="474" width="78" height="78" as="geometry" />
        </mxCell>
        <mxCell id="uLFq85hj9WoVxSmZYbQs-24" style="edgeStyle=orthogonalEdgeStyle;rounded=0;orthogonalLoop=1;jettySize=auto;html=1;entryX=0.5;entryY=0;entryDx=0;entryDy=0;entryPerimeter=0;strokeWidth=3;" edge="1" parent="v_wZgBtS-z9SW-eihl9p-14" source="uLFq85hj9WoVxSmZYbQs-9" target="uLFq85hj9WoVxSmZYbQs-23">
          <mxGeometry relative="1" as="geometry" />
        </mxCell>
        <mxCell id="uLFq85hj9WoVxSmZYbQs-46" value="&lt;font style=&quot;font-size: 32px;&quot;&gt;MuleSoft CloudHub US Region&lt;/font&gt;" style="rounded=1;whiteSpace=wrap;html=1;" vertex="1" parent="v_wZgBtS-z9SW-eihl9p-14">
          <mxGeometry x="441" y="-29" width="581" height="60" as="geometry" />
        </mxCell>
        <mxCell id="uLFq85hj9WoVxSmZYbQs-56" value="&lt;font style=&quot;font-size: 22px;&quot;&gt;Internal Transit Gateway&lt;/font&gt;" style="text;html=1;align=center;verticalAlign=middle;whiteSpace=wrap;rounded=0;" vertex="1" parent="v_wZgBtS-z9SW-eihl9p-14">
          <mxGeometry x="828" y="463" width="203" height="30" as="geometry" />
        </mxCell>
        <mxCell id="uLFq85hj9WoVxSmZYbQs-63" value="&lt;font style=&quot;font-size: 22px;&quot;&gt;&lt;b&gt;Mutually Exclusive CIDR Range&lt;/b&gt;&lt;/font&gt;" style="rounded=1;whiteSpace=wrap;html=1;fillColor=#fff2cc;strokeColor=#d6b656;" vertex="1" parent="v_wZgBtS-z9SW-eihl9p-14">
          <mxGeometry x="149" y="477" width="341" height="60" as="geometry" />
        </mxCell>
        <mxCell id="uLFq85hj9WoVxSmZYbQs-66" value="&lt;b&gt;Route Table&lt;/b&gt;" style="outlineConnect=0;dashed=0;verticalLabelPosition=bottom;verticalAlign=top;align=center;html=1;shape=mxgraph.aws3.route_table;fillColor=#F58536;gradientColor=none;" vertex="1" parent="v_wZgBtS-z9SW-eihl9p-14">
          <mxGeometry x="1099" y="474" width="75" height="69" as="geometry" />
        </mxCell>
        <mxCell id="uLFq85hj9WoVxSmZYbQs-3" value="&lt;font style=&quot;font-size: 22px;&quot;&gt;Corporate data center&lt;/font&gt;" style="points=[[0,0],[0.25,0],[0.5,0],[0.75,0],[1,0],[1,0.25],[1,0.5],[1,0.75],[1,1],[0.75,1],[0.5,1],[0.25,1],[0,1],[0,0.75],[0,0.5],[0,0.25]];outlineConnect=0;html=1;whiteSpace=wrap;fontSize=12;fontStyle=0;container=1;pointerEvents=0;collapsible=0;recursiveResize=0;shape=mxgraph.aws4.group;grIcon=mxgraph.aws4.group_corporate_data_center;strokeColor=#9673a6;fillColor=#e1d5e7;verticalAlign=top;align=left;spacingLeft=30;dashed=0;strokeWidth=3;" vertex="1" parent="1">
          <mxGeometry x="150" y="735" width="1262" height="775" as="geometry" />
        </mxCell>
        <mxCell id="uLFq85hj9WoVxSmZYbQs-4" value="&lt;font style=&quot;font-size: 22px;&quot;&gt;Subnet 1&lt;/font&gt;" style="fillColor=#EFF0F3;strokeColor=none;dashed=0;verticalAlign=top;fontStyle=0;fontColor=#232F3D;whiteSpace=wrap;html=1;" vertex="1" parent="uLFq85hj9WoVxSmZYbQs-3">
          <mxGeometry x="130" y="375" width="297" height="318" as="geometry" />
        </mxCell>
        <mxCell id="uLFq85hj9WoVxSmZYbQs-5" value="&lt;font style=&quot;font-size: 22px;&quot;&gt;Subnet 2&lt;/font&gt;" style="fillColor=#EFF0F3;strokeColor=none;dashed=0;verticalAlign=top;fontStyle=0;fontColor=#232F3D;whiteSpace=wrap;html=1;" vertex="1" parent="uLFq85hj9WoVxSmZYbQs-3">
          <mxGeometry x="471" y="380" width="297" height="318" as="geometry" />
        </mxCell>
        <mxCell id="uLFq85hj9WoVxSmZYbQs-7" value="&lt;font style=&quot;font-size: 22px;&quot;&gt;Subnet 3&lt;/font&gt;" style="fillColor=#EFF0F3;strokeColor=none;dashed=0;verticalAlign=top;fontStyle=0;fontColor=#232F3D;whiteSpace=wrap;html=1;" vertex="1" parent="uLFq85hj9WoVxSmZYbQs-3">
          <mxGeometry x="812" y="380" width="297" height="318" as="geometry" />
        </mxCell>
        <mxCell id="uLFq85hj9WoVxSmZYbQs-32" style="edgeStyle=orthogonalEdgeStyle;rounded=0;orthogonalLoop=1;jettySize=auto;html=1;entryX=0.5;entryY=0;entryDx=0;entryDy=0;strokeWidth=3;" edge="1" parent="uLFq85hj9WoVxSmZYbQs-3" source="uLFq85hj9WoVxSmZYbQs-30" target="uLFq85hj9WoVxSmZYbQs-4">
          <mxGeometry relative="1" as="geometry" />
        </mxCell>
        <mxCell id="uLFq85hj9WoVxSmZYbQs-33" style="edgeStyle=orthogonalEdgeStyle;rounded=0;orthogonalLoop=1;jettySize=auto;html=1;strokeWidth=3;" edge="1" parent="uLFq85hj9WoVxSmZYbQs-3" source="uLFq85hj9WoVxSmZYbQs-30" target="uLFq85hj9WoVxSmZYbQs-7">
          <mxGeometry relative="1" as="geometry" />
        </mxCell>
        <mxCell id="uLFq85hj9WoVxSmZYbQs-34" style="edgeStyle=orthogonalEdgeStyle;rounded=0;orthogonalLoop=1;jettySize=auto;html=1;strokeWidth=3;" edge="1" parent="uLFq85hj9WoVxSmZYbQs-3" source="uLFq85hj9WoVxSmZYbQs-30" target="uLFq85hj9WoVxSmZYbQs-5">
          <mxGeometry relative="1" as="geometry" />
        </mxCell>
        <mxCell id="uLFq85hj9WoVxSmZYbQs-30" value="" style="sketch=0;outlineConnect=0;fontColor=#232F3E;gradientColor=none;strokeColor=#232F3E;fillColor=#ffffff;dashed=0;verticalLabelPosition=bottom;verticalAlign=top;align=center;html=1;fontSize=12;fontStyle=0;aspect=fixed;shape=mxgraph.aws4.resourceIcon;resIcon=mxgraph.aws4.customer_gateway;" vertex="1" parent="uLFq85hj9WoVxSmZYbQs-3">
          <mxGeometry x="564.5" y="53" width="110" height="110" as="geometry" />
        </mxCell>
        <mxCell id="uLFq85hj9WoVxSmZYbQs-35" value="&lt;font style=&quot;font-size: 22px;&quot;&gt;Customer Gateway&lt;/font&gt;" style="text;html=1;align=center;verticalAlign=middle;whiteSpace=wrap;rounded=0;" vertex="1" parent="uLFq85hj9WoVxSmZYbQs-3">
          <mxGeometry x="457" y="48" width="165" height="30" as="geometry" />
        </mxCell>
        <mxCell id="uLFq85hj9WoVxSmZYbQs-58" value="Database" style="shape=image;verticalLabelPosition=bottom;verticalAlign=top;imageAspect=0;aspect=fixed;image=data:image/png,iVBORw0KGgoAAAANSUhEUgAAAKgAAACnCAYAAACFHRdhAAAACXBIWXMAAC4jAAAuIwF4pT92AAAOuUlEQVR4nO2d+3HbSBLGh1f7v5SBcBFYGVgXgXkRkI7AcgSmIjAVgYkIjopgyQiOjGDBCFaMgFtjf0OPoO7BABgAM0D/qlhymS8Q+NCvefTscrkoQYiVP+TK+DHLi0wpleHF90qp29Ibb/H/mh3xoQUe6rLIqOcFArGgJWZ58QChZdbfu46+7gjRHvAoLovs0NF3JcmkBQqr+ICHFuOHCA5Ls4cV1o/DZZG9RnBMgzA5gc7yYg5Bzju0jKExgt1OzcKOXqCzvLiFGI0wbyI4rDactFCVUpspiHW0AkUsuYQwQ4vyjJixzA4xa0Y89zHwMShLrOvLIis6+PzBGZVAYS21KB8DuO+jSVzw9zVEPGhVA8zjIVAitodV3bT8nKgYhUBx0VdKqUXDjziZhET/HcJ14ua6LyVtTSy//i0bWNXkk6ukBQo3rq3lp5pvPZukA4KM0j3O8uLeip/rVhj0b1ynLtQkBYoLt64Z150hSJ0Jbzs8vE4oJXt1bsikhZqUQBu68heIcjSxGc7DvGasfYZIVx0fXlCSECish74Y3zzfYqzGZqzZrcGqVvjetDpGfUzFi0QvUBTW156WQp/81dgyWR9gVU0Fwye50ln/MvYbOFqBwmpuPOOtPdxXcrFlaCxv4yPU6N1+lAKF1dx4nOCk3FWf1BSqrvnOY7SmUQm0htU8Q5iTc+V1wTnVFvJLxVvPCI/WUR1/LAJF6WjrEWs+40ROdoZPE2qU5l4Qm0ZxfqMQ6CwvtBv6XvGyI06czJdswSwvlhCqy+2f4PIHP9eDChTuZ11RIonS9aSMZygVRRg1mEBxknYVQ3hiNTvEMxl9viyyx8GOcQiBesabg56YqYD66bbCUOSwpr3Hpb0LFOLcOe7aM6ymlI56ZJYX64pMX3uzh75F+q8+vwwBukuc+iTcizj7B97qMwwEhbawO4RmvdGbBYU4fzheElV5Y6p4eLheLWkvAvUQZ35ZZMvOD0TwwiOB7U2knbt4D3F+FnHGBYT3gDkOFL25+04tKKaC/el4yWcZroybWV5sHHXqzi1pZxbUKiVxiDgTAN4tZ460c0vaiUBRW3MF2iLOhPAQaWfXMrhAcTdtRZzjokKknxAKBKcLC+oalRBxJgxE+sL8ggUS4qAEFShGI7jpXE8izlGwRHJE8QO5RzCCZfGYePA/5mmpc44IhHEHZi6FHonKQmX2QSwokiLOOh5FnOMC4pszw6I3FdWbWoRy8VxSdELBVxgZmALJGZ6PmITemtYCneXFypEUzWVsfbxgUs8T8wO/h4hHWwkUB8BtpvBVJhqPHyxZ5oZEWyfFbS0odwAvskRjUnDx6Ad42MY0FqjDtZ8dsYkwQhDGcdf8WxtX30igyNo51y5x5wRBPMqNNDX2pk0tKOfac+kBNGkeGVf/sekoU22BYgodNVp0xgEKE6XC1a+bzHpqYkE56znIqj8hLuDqqfH6myYGrJZAYaap4a29jLMLFpyr/4b8xRtvgVq7gFCIaxeuYJc8Tiu1yk51LCi3jV8uBXmBYM1Y0UUdK+o1mwnWs2AE+u+xbLONet1tqRlXubNxk4ZcJ9PpGJi+S8rqjFyMbbtyx4JJ79ltvgLlvugpuU35fzfSerBaaHfZ0bgup1LzsF3K4p3lRcGcWy/D5itQ6kuCzvvrAljE8iPlXp37Uvvu6DshO4yb195blQINYab7AjXatp3aUsPukneIcaCkjYH7w+PzOREO7tpLguyiWWsK3GHd+gLnRFntu01rx6Gt7JrYoPgGk0yc5UmnBUW89hfx1KDWs8Z24W0wU8heS52Ni1LC44M9advEvaqn2Hfw3QIdSfbpssicGX2VBeVihKGL8qsAF/ZsxXImGVEducjKz4Q3UB0kbze4Xr3uSmejLTiWJZe3d7zTv9t1zqsESlnJYwRxTt3msUc7sYgxubDO6btzC/FmLZK9GGJxbv/RpesGZgWKVZrUD4t9IvK5FH8lP7uK+g0Iv+6thDDqGFyXlGZ5sSeOc+56n8uCcjFmrJvLPqM35yRGtVBDLOzrAUs79+iJNBQbQqA3ulLEzeUghzoR1FJuNI+47rad+pArLG20u1NDhNTwJ2tFubF4bqmwbM0ttIXSEJtTcAKlFH2WveOFAJAaQs7zjjoCFXEKrYGR83bz7wSKIjiVvYtAhVBQlRUyrKQsKBewymI4IRSUsbuj5olSAqWUvJf1RkJAOGP3zjhSAqUKvmI9hWCghkvtMfpug4c3AnXsACECFULjFYeWLSgZqMpmDEIHUIMqd+W182WBUhaU2+5ZENrAGb03GiyPxVMCTcV63mOy7tQJukd8V2DyyJkoaT7YmisLlNqtLpWrXp6xLcTPgUjK39xgVxfvSJBkzbvQFZS22BiUnHEtCZLQIZR3fmNRbYFSGTzX3F4QQkB6ZzuTr9r6Rty70CVcfnMNN+0kibKgKQ1v/kfCEa8W6NGATJ46HLGgQjSciAO5WtDKJEkQOsZZxrQFStVAxYIKg1Ll4mWKndA1lAW95kNd9IsXhDp4u3hBiA4RqBA1PwXqGIeXGFQYFGNBuXF4yeKFQTEC5cZEuR1GBKEXfgpUVmwKsSJJkhA1IlAhakSgwtBQFaRryFkl0FqNPwWhAVQF6Zq02wLdEy8UgQqD4tMnKRWWUhb7SWpGxenibYEWxBLQlC74IoJjEOpDbfVJunjZ9UDoFccQ+5UqgU61vaDQD5VL3SstaJ3m84JQk8ql7nYMyk0MyRJx/0eZffWTW2b5ToxQxu+NDq8CRT/Fys2cIuZRlh2ntezYR6DlQj1lRZPYLU1IEirHeeOtRaDCIDhq1rUtKNl9QRBaQhq+cphWFqjXrreCEADKgr7bzfuNQNF9gdqKRIYQhdBQmnpnIKnZTJSbd/b0FoQ6OLoZegnUuwuYIDSE88heAvXuAiYIDVkSbztSa+PeCdQRh4pAhdZg92RqpItsVszNqKde/LHcZEkQGsAZuloC3TD/L1ZUaAvl3k/cJiHkjHr94lleaDd/V3rq0SHeoflzlhd7xND6cZjKen8ksA/WI0pwnNTwJmk9VcWSD/2mL6X/+6C/BHFqjHzE4xsu3Alls8NYRIsw6x5iNH+pkk2McB6YNXougW4IgSpY0ceBfzxl3Snu8PhkifZsCfbVCDhG4WK8OsPD/Nvnd8cKpRvWvSuXQOHmj0TGtYxAoBsjuAbcWJb2CrpNmDmlptR2MHNMQ0/lsyyhwt9bS4xcIbsp1IrdXsHNRt1czpCxalXnhuiBeTPLi+VlkQ0Wi14W2WqWF69wGSGXpZib8d1nltqlnBvu3x9aeFUcEaqte/xODs6oOXU0u1wu/JO/7vK/iad0UTWaCSS4O1OMyUJztJLEXSxhC5Kjv4inXi6LzFkZcgoUH75hlvRG2zgLJ+S+lEyMTbR2LB11AthGQz4C1Rf3/8RT+8siS2aWE0RrJxtcySNGjphpfrCSuiSWiTu8sE6OKud3VAoUX7JjLmby7QetZCUrPfpcfGbHtDvr72vqu1zP8mLFJLSfffIYX4FyC7GSsqJNsayv4b5hZ76itOZm1IMJOG8HIrw6XxaZ1/nzEqgauRUVusERez7pSozPl9bZH5T7QK8vEqYFrCclznOdspe3QGElqYKvnuVETQAQpg0XX67qhDXeLl65Y1F9V2TSjEFQbp14Ze42tbYAhxV9IZ66EVcvqN9VEdZ61j1JTfao54asvvhspyeMnkdmzH3fZHi8tkBRIH5ino51rqjQAzBQ3CSeRhOMmnb5WDPrlj6gMCtME85APTcdcGgkUCRDXOb+TVz99JjlxZoZeTu1yU8a90lyJEyarSywmw7I2qnJ7QrbYjau7rRt5LVkXP2dxKPTAIaIW1OUXxYZu97Ih1YCrXD1n2Z5MfTMe6F7dsxUxlOIlRetWyHC1T8zT3+X3kXjBWPt3IyvZYiBmyC9Oi+L7JHaOg9sJWkaHxje5npTPYWaQBSymey83KEBaPO/kaRpPMAr/mB+0IvvTCUfggkUBXxufYl2AzsRafrAG3KJz8mRkzQiaDtumPWvzNMfIlldKDQE4uSSIu0956EnDNWazeT9ofxEVYXSg0zPSwx4v4Nj44j/ti0pUQS1oAYIkNssYAEBC4kAce4c4vzchThVVwIFc0dmLyJNBMyM3znKSc9dbuLRiYu/fvjvO4/7ceLuI6Yi5lR9XL9OBar8RKqt7IPMxo+LGMSpOnbxP4HwHhzu3pSgpElDJKAIP7g4VR8CVf4iPciI0/BgPu+PGMSp+nDxb76s2t0r3x0nhLBYa4k+OT6495yhV4Eqf5HmbecRCrWuyT3E6bomXy+LrPeBlt4Fev1idzFfIRxYpr43UexgSuSqYve/wbzaYAJV7o2lbLy3SRFqnXsfl35GhWUwIzGoQNWvEzXHiXLdwXu4fLGmAfA850eMrQ+6zePgAlX+MZASa9oOlPI2HvuiRjOAEoVA1W+Xs3IsvjKcEJvKjnqe4Nya7iwuq3mGp4qmihKNQA2e7keJ2/cDRfeVR/uaPW78qHZujk6gyj+AN+TYMS2JLbH7ArPeN559laINnaIUqKGGNVUi1F/AYi4999+P0mraRC1QVS82NejNJNZTilFxjuaerlzFGGtyRC9QAzL9dY3OHCe8fjPWESlk5Y+wmL5tdp7rbiI7JMkI1AC3v67Zs1K7/21Xs777BNbSuPE6XUiSDIGSE6ihRnZqc8aKxG1MndiqgKWcY0aYT+Jos4cwkwx5khWooaFQDXtLrNGUq2Al7f7vTfo15Qhv0u5jlbpADSirrFp2j9ubtoK6n1FforXabpu2jU0biBkPMZpqxmgEamiYOLiw2xAqqxOcV4vuUtvtW6sJ2H3A/u9HxOXbsSWEoxOoDRKqecW0vlQ5wVpuxjyaNmqBGqw64QP+ptr5eBKitJmEQMtY/eXnPTaMbcLZare9neIo2SQFWsYSrOkxHyIubMLRarkdVWVhKESgBESLbjuxaRseaBG+Wp2Pe60YpIYItCEYevXdTnLUbbe7RAQqxItS6h98I43AXYusOQAAAABJRU5ErkJggg==;fontSize=22;" vertex="1" parent="uLFq85hj9WoVxSmZYbQs-3">
          <mxGeometry x="186" y="444" width="168" height="167" as="geometry" />
        </mxCell>
        <mxCell id="uLFq85hj9WoVxSmZYbQs-60" value="On-Prem Servers" style="shape=image;verticalLabelPosition=bottom;verticalAlign=top;imageAspect=0;aspect=fixed;image=data:image/png,iVBORw0KGgoAAAANSUhEUgAAAKgAAACnCAYAAACFHRdhAAAACXBIWXMAAC4jAAAuIwF4pT92AAAOfElEQVR4Ae2dzXHbSBbHwam5y8e9mce9SRmYE4HpCEhFYDoCURGYisBEBEtFsFIEK972tmAGRgTcas0fFAS91x9AA90NvF8Va1yCRmyCf7yv7n49O5/PmSDEyp/yzdgzy4sFfnmOV5Pq+kuWZb8b137j54rivJoXEX20aBEL2mCWFzcQ3w1e6t/XPb3dSYkVwn3973k1f+rpvZJk0gKd5cUniHCB15cIhqU4QrRKrE9TtraTEygs5DIyQZpQlvYAsR7iHqpfJiFQiHINYX6OYEhdKGFZlVAP59W8GeuOitEKdJYXKnbc9CjKZ+JnBV4L4pp6SK48j6GEUPdjjV1HJ9BZXqxhLbu67yqBeaoJr3P2XYt7P9WSsBsPiZga7w5iHY1VHYVA8aVvIMw21rKsJyXIpgf/khGKLGqJW1vLn2dZth1DcpW0QGvC3LRwn8daHPdi8fuDgzBlUUvqXD/jo7KqKbv/JAXaQZiPKScXs7xYQqxLx8+t4uVNrA+ijuQEOsuLraMwq9jsMKZ6ImJtJdSvDv9bcq4/GYHCeuwc4rJ8zNltBcKAteNDew/XH70XiV6g+AL2lll5WctkJzf7Aqu6tXyIT3D7URf+oxaogzuvhJmEVegbeJuN5UOt4vJ1rPctSoGi3LK3qA2KMDU4hEUlRBqdNY1OoLO82MBNmazmAwJ+EaYBuP6dxT2NzppGI1CUjvYWWWmyJZOQ4P6qB/+7YRgqNl3Gcn+jEChc+sHgikoIcz/g0EaHQ/j047ya70J//uACtXQ/UQfyKWIZSuUwCsHue1CBzvJiZ3A50QbvY8DSmqop4UUokQYRKOIhJc6V5teOiIVk707PWBiKYHHp4AKFOJ8MT+3DeTXfDDisyYOS1F7j8ktY0kFF+seQb2YhTnUTbkWcw4Mw6gaei0IJ9wk5w2AMZkEtxTn4Eyq8x7LcdztUNWUQgVqIM2ggLnxklhd7Q44wiEh7d/EW4nwWccbHeTVXrvxWM7BfQ7j7Xi2ohThz3AghUiDCX5rR/dXnksbeLKiIcxzAjess6QH11F7o08XrCsAizoQwiLTK7qleVZ3pRaAIsLksUMSZIBYiPcBresW7QBGzcNnfo4gzXQwivcaCH694FShiES6gPmLvjJAwEOk98wm+YNrUn6Z8ZfEw7wUzVabmcm+klDQeDHXSb74W+Pi0oAdGnCUWGog4RwRCNW5adO8rafIiUKwt5DZorWX6crQs4B2bXPmKRzsLFHHnT+byvazlHC/wikvmA15jV24nfFhQbj72+byadx6gEDfwjj+YQd51LeJ3EiieEKoYX2qeLGFkYO/SI/OpOi0oaS1QPBl3zGXZPzQ91jBMTTq5+i4WlKt35RJ3Tg9DPHrXNqtvJVDMFlFZe4mWK8IEwaqmnPnkrVy9s0BrG94oxLULG8bVf6kdhGZNGwvKNfN6FNcuwEBxXtTZijpNdSKO+B9xqcRUZpAtwhhXL8u9UiZkb9RZXjwxYaDTVhFXgXLzr/chap6oJOwSOpBraE7o/Dd4Cxt8N/8hLiljNrcNBa1dPKwUJc5SE5P2jYhTj+p19bOPdZomUMCnEqYrl0TaJQblLGTI3j0iTjtCLXNkNWP70FgJVGM9T9JtLgkGt6DZ31a0YNaOXtnONNpaUM4ky1y7YGLHlJ2stPOn6RdgiikXEav17HUbbOxosucgqPBvlhcHwgN/VhM+Jg3ZWFDu0KjgzU2FZOCspTE2thEo9cfLrqtUhOmAWJTK6L+Y5ui1AsXUFNWWe1Qn6gqDwBk0bcnJZEE5EyzuXXACeQG1h0nr5k0CpUoBz9L1WGgJZdiu0DyXhM3isaSOSo6SjD0Dztf/7rJpsDHuIOfYe+TA9E1Yc5vsdGUmStVlioV5ix7sfb9/q/6nxNqHUuUFqe6SRckpJ0pOX1U5k7o/OhdP9VZKbjkdFi0EEye4dp1uxLibX6S37bwB4cZPrhUlBaqJCVK8OUGm+Qhcx8Et7rU9jjxKsGaYmlkiNcdZUM69pyjQWBI613Fws2HPHsYSGkpHTgKlnt4kpw9RcbhlntqheHCN3RFnNsf9PJI9X5RAr6g99B+SJGSNlBtJNvaBOJJL7lIdtwWcsVNW9F0CSFlQLv6c7AIMwS/I1qlQ5YPnpgRKtSo5SnFe8Axl8D6swqIEOpr4U4gaUlPNOPSPxsVPTPwp7RMFr2jW7L4zkE0LynUiEwsq9AG1eIS3oIx7LyX+FHqCMnzvBNosM1EWNDX3/u9ZLs9TIlBf1Lt2nk0LSk3HSfyZPv+I9BOQ2qonSk2BUputxBylzz9j/ASaROliKC8C1WykFwuaPjEbGWoK+pIL1S0ol8GLBU2fmL9DrQGsJ0mkBU0wg/8xcau/0xziGyPUIu6LBa0LlLKg1Bk4sfMy8cYNqW0JedEcPGzcNCfuXQjBxyQpopXnwrSgwrFLiGJKksSCCn2jDUnExQtR4/W8eEHwjbH94ljA9FmoRq6tqwqNcRdTW7gzCYEaDt8f4v19NW5QP/s2suN+yHui9saph3H0Lp5pgDA01667MdGbgBr32Bq3cR7htd3PFGLQVMtnXB+ppBs3EHBT7K/lpykINNXGDZwbH0PjBiNVODR6gSKp+BZw2rbEQWeujRuocT9O7Rz+SSRJSCqSSyxSHbdP6haUyqa4+EAQBhcoNScq8/NC32iNoMwkCaGhjOAlERQXL0SNycVTPeoFwSdUL4ZLSc7mKMSbxHqiy7749Ll8gRcLarMFVEiWmL9D7Vb3ZpKk3QIqJEuU++I1xyCyAqVceYizhQS/xLqRjtPWRYci0Gnw30g/Jdes7vJANZMkKruI5uxxS2RffDr74o3N6poC5Zo5LRLaay774tPBKNB3Ll7zxUrBXvCK5jQZ4ykfVNdbyeQF31h186YESllREajgG0pTp+amQFuBkqeACUIHqIXXH3IgW4FmYkUFX7icZvhBoKhBUXGo03HSgqDB+jRDbrHIgailXXOHzqcAtvGGCFNUTHVoe98a4z4ktnCHgxLoh/gzMwj0jvj5MsXDTWd58RR4wmGHVWFOy6xmefHSMBR3s7y4dd2AFxNoNU99F+TeK3JFPZ5Sahdkcm5eTTJEMBt25XrvYDmpGaHUGzdw7p186HRbPihFf9GsQBH8wt3n1BeRUx1WTlzoohMo50ZS25ddMMsIh8Y1dhxd4wYYN8orsFur2RX1StGzvDgR5YBNSm5GxX1w8yHHfHBt+IVx/5Vl2bb248K1x1NkcGNnY2rTlo89kSx9TmzxSBVTJ1fHxT0eU/2ZisOPusqEadsxp+yUn2IhALO8WDPxs7YioRUoyiKPxKWvkiwJjji798yycQMXu22ZnwvCO5ADUMlRbprAMG47VnEQkyytZnmxiXBmaY0bMlVi9GycMTMmrrbd7dQb/CJ+vonQkobupizU0EyUPNtM21r1ZsLUGlVL3EgsKhjgDJiVYXNpHkaZ46vAFjSGAnwKBGm1YrCeVmVKV4FSglgFtKKTbu5qySng4pJO1jNz6bCskqFZXqg//JO4vA9UUN5gDaGsVaV5CTWDhrpnJ+v5+nfO57PrGxfMaui/przdV3gDS+oKpjDvpJM2DWw587zHwARhy4jz0dWIOQsU8Qy1ouazTIEK2Fz5nbkRzvpo2wKce6M72f05ebiE7L7NOaOtBIoC6wNzOdntCEI3kERTU5qntslal0MUtsy2ELW5bmznSQoG4DmpfWyKddsp8dYCxRtyrv77xOfDJwWSY64m7ZwY1el0DA1WiefM5YNk9ZNhz5QeT11r1D7OSdowrv5K06VEGAlqRZtaH8x8mtauvaKzQDEA7im5xqH8wghBGEfNLCoefEzceDlpDgO5Zy6vMO0ljAgkRVzcqfYZeamJezsK8byab5ntIYpfkjSNB+QWe2a2qPS5Nd33WZ1rzbnsBynipw/E+aTpg79sU5Dn8CpQxKNLZlnea9IkIk0e3SENP3wvGHJezWT1R//uK/Qv5rKysDepdsmbMkh4uS01agOc91yjl+O4UR+9ZS5/hiWVGmlCGMT53Ic4sz7Pi8eqJ26+/hoilf1MCWAQ57HPfl29uPh3b6D/cCpWXYykKesosRDnos9wrXeBZiLSJLHI1nsXZ9ani6+D+ISbs6+yeynmRwJCr+DizIYSaGYn0l9YTygEBGXAZuvxOoOJMxvKxb97Q727zzAb1XmRgeAOvBjVQaZiUHFmIQSava2A4RYZZLgRa4lLhwHx5s5gOAYXZxZKoJnd06qSp+15NZfV+T0Cl743HOHdSxHehmACzd5uzpPhYABx+T2BmJ/bplFxj4VAYcYYUqDZW8ZIHRxWp4RIpdWNB3DP94bjeaK458EFWmGRPGXYj7/2uVpmalhazWhygGgEmr3FpTuDyy/xOztx+/ZgPS63d6jOA2L/KO5tVALN7N1PhlVR25SPBRwCxPk7i/sZZRgVnUArLF1RVu0clMZl78GDvrXsOB1tIhqtQDM3a5ohPt1P3aI6CjP65DNqgVZYxqYVJ3xBrY/AThHEmLotwE2iijU5khBo9jbbsdV0TmtSwvruxpr1456sIUxT8lOhPM0mlVm6ZARa4ejCKo4Q634MVhVbapaO9+AEYSZVS05OoBVwadsWZ8E/YvbqkIplhaVcQJRLxyO5k652JCvQCgh13fJ8pCPE+vqKybqiPFSJ0vUhzMZShkteoBU11+9qYeocsRZSCbYYqnQFMarxV6JsI8iKZwhzFGW30Qi0Au5wicRBN79vywkHAijh/q79V/FiY3UbXVWqf1ei9DHG0SaEoxNoHVimNQRrm+WmRI5YerSLaEYt0DojEWuJlV9PU6nzTkagdRCvLuFuFx1i1iE4VqKc4nTuJAXapJYx3+DlIy5swwkx7stUBdlEBMrQyKzneH3yIN6ykXAVVRImywc/IgJtCaoFtp36fssGwHaIQIV4ybLs/0dCT6GySGRFAAAAAElFTkSuQmCC;fontSize=22;" vertex="1" parent="uLFq85hj9WoVxSmZYbQs-3">
          <mxGeometry x="885" y="440" width="168" height="167" as="geometry" />
        </mxCell>
        <mxCell id="uLFq85hj9WoVxSmZYbQs-61" value="APPS" style="shape=image;verticalLabelPosition=bottom;verticalAlign=top;imageAspect=0;aspect=fixed;image=data:image/png,iVBORw0KGgoAAAANSUhEUgAAAKgAAACnCAYAAACFHRdhAAAACXBIWXMAAC4jAAAuIwF4pT92AAAOVklEQVR4nO2d7XHbSBKGh1f7X85AuAisi8DcCMyLAHQE5kYgKgJTEZiIYKkIlsxAjODADMwIeAX7BQ1R3YMBMMD0AP1UsexdWdKQfNlf0zM9u1wuRlGk8oe+M+2YZXlijEkcv/n1kiY/pD2HGFALSjDL8g/GmAcIMMHfy/931/HHH40xhVhzPF6LPy9p8trLk4kcFegvQc6NMXMIsHjcB1rKEYItHnsV7UQFWhHkwhjzUcCSOM6FUPHYXdIkl7nM/piEQOGyFxVRdnXToTgVQjXGbKdiXUct0FmWLyDIVMByfDMJsY5OoMiuV8aYpSdLWSY1e/x3+ae5pMme/7bresrkylQSrWoS5iPeLda4QRgwqmrBaASKuLIQ5ucOP+YAAQ6aWWPtSSVRaxsXFzHrthDrWOLV6AU6y/LCUq5bWqID3KSojBlWt0zk5i0Fm8H911p5yUQr0JbCPEOQpSijcIcIW8okr6mHKD6E61iFGp1AkfhsGgozQ3y263FpgwDrusSjiWXNINSoXH80Ap1l+QOE+cnxW07499uxbjO2TAifIdQ4vId0gcJiFK78q+O3RO3S2lCp87qGPEWos7qkyVbes3mLaIHCnW8drUOULsw3iM2Xjp6m+DAvJb9mIgUKi7B1TAhUmAQoXW0dLerTJU3Wgy/SAXECbWA1D3BTk2+osNGg2iHSmooRaINY84QXcjIxZlfw2q7wsH3wxcWmIgSKDH3rUDYR64piAFn/1iE+zS5pspTwlIIL1NGlqzv3iONrXuzvL0K7/KACnWV5YQ0fa/6ZWs0ecExEC5c/D2kYggl0luXbmja4I2JNtZo9MsvyFWJ/mzX9EiouHVyg+OTua+LNDC5dD5oNgGMO8NclTTaDr21IgTqKM9indco4uvzBk6fBBOogzuDxjuKUFwwq0n8N8UscxFnEmw8qzvAgIf0Cg0GRIn8YhN4tqKM45xpvygJx6d6SPA1iSXsVqIM4xRSElfdIEGlvLl7FGT8IuR7g5SgKd99rZt9nDLpTccYPdpLmFpF+RUNKL/QiUATR3H6vijMykB/M0ahD8R3bp97xLlDsTHA7RCrOSIFIF5bsfouY1SteBYom2W/Ml49o91LiFekrLCkl0iKR2iH38IY3gaKVizs1qaWkkQCRcu78HrtR3vBpQXdMOeKMpg8V50hAs/gX5tl8xm6UF7wIFKUGLmNf6A7R+EC/RMY8sUeEe53pXKjHQv5hvhykA0YZjlmW75mKzQnb1508ZycLioCYiztfVJyTgMvs73FxRie6unju2MAJZ7OVkVMpP1GkXeujrQUK1871Di40KZoOSJqemSe86VJ6aiXQSnMrxZMmRdPjkiYrZjv0HkdKWtHWgq6YiwCOesBt0nBh3de2u0yNBYqCPNdxrXHnhIHnfGJegVYJUxsLyv2iZ3XtCvRBNZV8atP11EiglsTo3CXOUMYDkmNOiI010tSCcr9AjwgrV5DVH4hX5B7dbs447yRZdowOlzTxsq2ljAfkKv8jnlDhbRNXg9bEgnLWU1278g504lN79XdN2i6dLGgM1hMB+AJDsvombzLiJcDaRFzoCyv6Suw2ni9p4vRauAqUawj4U8I9nQ73PPWF9RaUSq+C6+AHn4i4ocVyEYTT+mpdPAqs1At8ECLOdcBZnN9r2srWgcRpsDbvRzBawJUlnUJDlxiUixekxJ6hj5GQvx/W03UySV8EP2KDZIiKRe9dGkmsAsWLTFmnoxDrORcwWptrmJFgvRIBazAWY1ZbuP+j5uvcD5De58ltt3Ul8RBODLm2UOHFG4qEbZblL8SHuTgektgSujqBUi7iLP16xL4aVmCxOwlU8tp6ZsN4m6UtXGRdPAJsqmNJ7+5UGoOQkNqjt7p5Wwwaq3tX5EJp595WbbAJlMqwjjrRTekAd36NtaKkQC3uXa2n0hoYN6qJhC03cRaUU3T089aV4FA5DOvmOYFSin7RljrFA5yRI63oO4Fig59y7zobU+kMjBx1uM5NoLi9jELdu+ILys1/pI4nUwKllHzS7F3xCOeN3xlHSqBUsKrWU/EGDldS1+XYBarxpzIglKZqLSgXf+pxYsU3lEDfXeF5K1DKvWv8qfQBafRuG8BdBKrWU/GOpZ/4jQZVoEpIqG3PN03WV4GiBkV1p2uCpPQFFTqyFpRredL4U+mL7gLVBEnpEco7v/HiVYFSB+mpGEFRfEE2H1Uz+apApZwAVCaCy3WddQLVBEnpG2rL8xpu1p3qjJJZlncb/tQjA6+NG/wqiVfiePQ13KxaUOoMtfQEScL6uBHVEpq7o69h1119I1qgljMuQ0Iew0Z8xYl3KGLoQqM+yFcX731efABC3j90qjlIGHJtx0juMKCsPOniowSW6s8A1upQN2L8kiaFBfuvxLXFwiiSJDQeJL4m7Drww3WiCUS6G3Bt+Zg2V34KFI3K0SPhxj0OyWuTTOniSYHqi6qEphQot+Wku0tKUH4K1BJPqUCVoIyhzKSMGBWoIprR7MVj2seCOhnYA0WdcYMSUt26PqBgP9TaXrC2WBJcaxhZZ0GHGDzViUIAsyx/xSyeIQRg0LfwN+YzsUCc+4HXVlyz/Q8+sDFACfSaE1UFSl3oJGFSRR3rAd/8W9KaUSqbgGt7HHBzwDfXqlJVoLFui4mcRYQSXeihBsHnJDnQycWLtqBCLAQ36kVCiS6GMiF11dLVxVeTJGoep/gYlOHPnn5u8YH9FtHaQoUXTlDXLYKrN6/L4mOIQd/RVwY7y7r3YEheWwA4fZFJUu0RUEXxDHfU3T1JijgTVORDxchvTkhcBWrZj4/SzStRQGnrjaG8zeKpWqg2jCh9UXtZ3a1AKSuqLl7xDurEtZfVuQhUdKlCiRan27xdBKqJktIH3G3efAxqqdGpQBXfUJp6pz9qq5O6CEEFqngD8ScVOr7z4JRAKSv6ybItpShNcZ5mSAmUa8JVK6r4wnma4TuBWqaA2foeFaUJTvEnKVBAWVEVqNIZNHhT9U/SczcR6F1N97iiuEBqiDvfxQmUKzepQJWuUBp64X4mKVAUS6lvWmg2r7RlluXLJu7d1Bz5oE4s3qkVVTqwJL71fEkT9nQsK1DEBFQ2H8NBLEUYKM5T57esdwvUHZqjlP1R9+aVFnCGzXq3QJ1AueutKVOtKCTIWyjNnOrOaFkFahlSkOrVjEoDuOTIdr//T1zuZtoyscNaqiXVOUlXQk8ZKaHc+9llyEPt7XbIsKgnKqHkJGEOEHVMxgi5qSX4WWSUlqjLGbYuQx5cr1+kLqK6C53R4wmGnpNEZqFC5iRJGEPDXWJW695NA4FyJadHAbHoKuDIv2PNC70IuLaDrb44BBbrmblOInESKCwV90YEveYPlmoewJJmDnOSQq3tOfSGCsK/zpqZXS5uMTt+Yc5kY/9xnRvUJ7DmQ1j016ZDsoZam5SLa3E/6SPxpcJ6OifXzgI1v032d+JLhTvR4r3yE3wYXxlj9u8mg8Ya3VFvyeg/QbyKYuDaKXE+NZ2C12aIApe5b7TTSUHP8GfihTi7Zu5VGgsUTSRU0H/XZgHKeKhJjFZthtu2HUPDufNUG0kmzYYpK7UuebUSKOKIJ+bLO3X10wOunbuTv/WGTutBXpc0WTPbfHeRDNJXPAGDxL3nT11KkF0nzXGu/vMsy7WxeTrsmKz9CEPWmk4CxSeDc/XfZlmul9+OHBTkuUknnUuPjQr17A/5NemNumunqJk+tMneFPkg7vyb+fJflzTpXNXxNUyWa4q4txxhViIG3pGLOw8+xGl8CRRZPWfOP9bNtFTiAkkRF3eefTaqeBvHjQL+M/PlNKLhpoqFyoBcqt5p6jq8muJ1XvwlTVaW1rJH3a8fBVvLtfBffHe1eRUoWFiOQXxXkcYLQjVqn92gjc57KOcli3/3Q+3tVgafNI1LIwLi5HaKXi5p0kuDdB8WtEya5pbjDmpJI6JGnMc+T/f2IlDzu4hv+1SpSCPAQZxek6JbenHxVSxd+CXq7gVSKSVxu0S9i9MMIVDjJtJG51SUfqmUkrhsfRBxmqEEatxEWtxHutRt0bBgh2hvSXAHE6fpMwa9BW78iyVxKsoXe73zKRwwImLEaYa0oNdfWP8JPcOSWu+NVLy/L8Xe+VfLPxlcnCaEQM1vke4s22UFz9iZUvp9LxK8F7ahwVnbM0VdCSJQ4xaIm7LGJuFSiDGCdrmtxZuZ0IYimEDN21OAXJ3NwOWvfbVvKW+OaHDbluXrvgp+v1NIgV4X8et4yLeaf6bW1ANIhLiLFUqKRvOFiOuMJAjUuMelBi19ay1HNQOv78ZSeC8RVe4TI1Dj7nqMFPcTA3hN1zUZupEaSokSaIlj8G7gilZaknoPhLnCo+51PMKlB7+R+RaRAjXNrKlBk/RGhdpYmGe8bmJPO4gVaAmsKXelyi0nuKnJuX7UM5eOwjT4UC8lWs0q4gVqmlsFU7lJbSv9DegK7sJa1pTqqkQVFkUh0BJYiXWDN8MgK92NyaridVjgA+viWUwM7pwiKoGWNCiZVDmjjLWLMVaFKOcQpktcXlJ6k02MpbkoBVoC97Zq+IYZvGl7CHYvNQzAB3GBh21LmCJqYZZELdCSlq6/ygmCfYVgB99BQZz9ACs5x99d4u1bTqh+RC3MklEItKQytLRJbMZxhGBz/PmjzXQPYo3ltI/yMcefXdd7QFI4qgrGqARapZLdLlpaIhtnZgxj8f8+EONmPrRw0S6U1nK01YrRCrQEVrWM4+Y9iHVoToidt1NonBm9QG9B4b/Mhru61aE4lEnd1Lq5JifQKpXSTZmc9OGG21AKci9lclwoJi1QCsSuD4gjHzwlMByHMvkqEzLtd32LCtSRm1mbD0h8qpRloh9MApWX89unbhWboAJV5GKM+T+4HShTf+PpZgAAAABJRU5ErkJggg==;fontSize=22;" vertex="1" parent="uLFq85hj9WoVxSmZYbQs-3">
          <mxGeometry x="546" y="445" width="168" height="167" as="geometry" />
        </mxCell>
        <mxCell id="uLFq85hj9WoVxSmZYbQs-64" value="&lt;font style=&quot;font-size: 22px;&quot;&gt;&lt;b&gt;Data Centre CIDR Range&lt;/b&gt;&lt;/font&gt;" style="rounded=1;whiteSpace=wrap;html=1;fillColor=#fff2cc;strokeColor=#d6b656;" vertex="1" parent="uLFq85hj9WoVxSmZYbQs-3">
          <mxGeometry x="30" y="53" width="207" height="60" as="geometry" />
        </mxCell>
        <mxCell id="uLFq85hj9WoVxSmZYbQs-65" value="&lt;b&gt;Route Table&lt;/b&gt;" style="outlineConnect=0;dashed=0;verticalLabelPosition=bottom;verticalAlign=top;align=center;html=1;shape=mxgraph.aws3.route_table;fillColor=#F58536;gradientColor=none;" vertex="1" parent="uLFq85hj9WoVxSmZYbQs-3">
          <mxGeometry x="686" y="133" width="75" height="69" as="geometry" />
        </mxCell>
        <mxCell id="uLFq85hj9WoVxSmZYbQs-40" style="edgeStyle=orthogonalEdgeStyle;rounded=0;orthogonalLoop=1;jettySize=auto;html=1;entryX=0;entryY=0.5;entryDx=0;entryDy=0;strokeWidth=3;" edge="1" parent="1" source="uLFq85hj9WoVxSmZYbQs-68" target="uLFq85hj9WoVxSmZYbQs-39">
          <mxGeometry relative="1" as="geometry">
            <mxPoint x="-264" y="299.20000000000005" as="sourcePoint" />
            <mxPoint x="-160" y="270" as="targetPoint" />
          </mxGeometry>
        </mxCell>
        <mxCell id="uLFq85hj9WoVxSmZYbQs-55" style="edgeStyle=orthogonalEdgeStyle;rounded=0;orthogonalLoop=1;jettySize=auto;html=1;strokeWidth=3;" edge="1" parent="1" source="uLFq85hj9WoVxSmZYbQs-39" target="uLFq85hj9WoVxSmZYbQs-10">
          <mxGeometry relative="1" as="geometry" />
        </mxCell>
        <mxCell id="uLFq85hj9WoVxSmZYbQs-39" value="&lt;font style=&quot;font-size: 21px;&quot;&gt;Inbound Firewall Rules&lt;/font&gt;" style="rounded=1;whiteSpace=wrap;html=1;" vertex="1" parent="1">
          <mxGeometry x="-63" y="269" width="151" height="60" as="geometry" />
        </mxCell>
        <mxCell id="uLFq85hj9WoVxSmZYbQs-48" style="edgeStyle=orthogonalEdgeStyle;rounded=0;orthogonalLoop=1;jettySize=auto;html=1;entryX=0;entryY=0.5;entryDx=0;entryDy=0;strokeWidth=3;flowAnimation=0;" edge="1" parent="1" source="uLFq85hj9WoVxSmZYbQs-41" target="uLFq85hj9WoVxSmZYbQs-47">
          <mxGeometry relative="1" as="geometry" />
        </mxCell>
        <mxCell id="uLFq85hj9WoVxSmZYbQs-50" style="edgeStyle=orthogonalEdgeStyle;rounded=0;orthogonalLoop=1;jettySize=auto;html=1;entryX=0;entryY=0.5;entryDx=0;entryDy=0;strokeWidth=3;flowAnimation=0;" edge="1" parent="1" source="uLFq85hj9WoVxSmZYbQs-41" target="uLFq85hj9WoVxSmZYbQs-49">
          <mxGeometry relative="1" as="geometry" />
        </mxCell>
        <mxCell id="uLFq85hj9WoVxSmZYbQs-41" value="&lt;font style=&quot;font-size: 21px;&quot;&gt;Outbound Firewall Rules&lt;/font&gt;" style="rounded=1;whiteSpace=wrap;html=1;" vertex="1" parent="1">
          <mxGeometry x="1446" y="269" width="151" height="60" as="geometry" />
        </mxCell>
        <mxCell id="uLFq85hj9WoVxSmZYbQs-42" style="edgeStyle=orthogonalEdgeStyle;rounded=0;orthogonalLoop=1;jettySize=auto;html=1;entryX=0;entryY=0.5;entryDx=0;entryDy=0;strokeWidth=3;" edge="1" parent="1" source="uLFq85hj9WoVxSmZYbQs-9" target="uLFq85hj9WoVxSmZYbQs-41">
          <mxGeometry relative="1" as="geometry" />
        </mxCell>
        <mxCell id="uLFq85hj9WoVxSmZYbQs-47" value="JDE" style="shape=image;verticalLabelPosition=bottom;verticalAlign=top;imageAspect=0;aspect=fixed;image=data:image/png,iVBORw0KGgoAAAANSUhEUgAAAKgAAACnCAYAAACFHRdhAAAACXBIWXMAAC4jAAAuIwF4pT92AAARt0lEQVR4nO1d63UaSRYu5sx/TQZiIzATgZgIxEQAjsCaCCxFYBSBIYLFEQxEMCKChQjWRMCesr9iS3BvVfWrHt33O4fjOSMhmuqv7/sxOp/PSiDIFb/KnamH0fowUUr9Fvjmt/N8/D2371ACRIISGK0PmniagGO8DBn1v3cN//xeKaXJesDrTf97no/fOvkyhUMI+pOQU6XUFATUr/tEl7IHYfVrK6QdKEEtQs6UUh8yuCQOJ01UvDbn+fiQ52V2h0EQFCp7ZpGyqZpOhaMmqlJqNRTp2muCjtaHGQg5z+By2sYgyNo7go7WB+3UPCmlFi1Jyr3lzCio2x84z8db/m2X6zHOlbIcLdsJa8Pe1de4hBnQq2hBbwgKu/JZKfXQ4M/sQMA3hIai2Hy49rHlqNW1i0+Qqs99sVeLJ+hofViAmHUk0Q43NCuPGVLXOHLTmoRdQ/17pXzOKJagNYlpJIwhZRHqEGaLcfIeK759B4laJFGLIygcn2VFYq5hn206vLQogHRd4FVFsq5LVP3FEBSpxWUFG/OI31/1Nc1Y0yF8BVHL0B65ExQSQ6vyT4Fv+aaJWbrtVQVWnDfU5NGmztN5Pl7l8y1oZE1QqPNVoHQoUoW1Ddjmi0BNo+3TRc5nliVBIRFWgQ6BEJMAQlfLQDv15TwfP0e/yABkR9AKUnMHNTX4ggoXKkQ7spSm2RC0gq15xEEOxsZsCpztE16uBz872zQLgsJDXwWoo2xVUQmA178KsE/X5/l4kcNXSk7QQJWevTFfEgLPXOf3Z6nPPClBR+uDloafPb8mUrMDBDqiWuVPU9r5yQg6Wh9WnjK4PaSmOEEdYrQ+PMH2d0nTj6ns0ugExZO79dibaxjr0mgWAYE+wF/n+XgZ/dpiEjSQnMme1iEjUOVHd56iETSAnMntHUGQXxCVpL/E+JAAcmp7cyLkTA84pB8hMCjM4T9EQecSNJCcU7E38wLs0q3DeYoiSTslaAA5swkIC26RA0k7U/FCzvIBk2sCLUdBq/tOPfsubdCNkLN8IJM0dZD0EwpSOkEnBIURzeV7hZyFAf7BFIU6FL4ifdo6WicoMhNchkjIWShA0pnDu1/BZm0VrRIURbJfmB/vUe4lKJekb5CkFEm1I7WB79EaWiMoSrm4rkkJJfUEICmnzu+RjWoNbUrQDROOOKHoQ8jZE6BY/CPzbR6RjWoFrRAUoQbOY59Jhqh/QL3Emvlin2HuNUbjQD0u5G/mx0kqYATxMFof3hjhdET6upHmbCRBrQoYCt+EnIMA5zTdo6u0EZqq+BXTLXhEb7ag57DCTxTmTeOjtQkK1c7VDs7EKRoO4DS9Ml942ST0VIugHtX+Ik7R8HCej5+YdOg9Wkpqoa4EfWJU+14a3AYNzqz7VDfLVJmgCMhzFddidw4Y0JwvzAnUcpjqSFDug15FtQvAD6qo5KFO1VMlgjoco1MTO0PQH8A55ohYmSNVJSj3AdIiLLgAXv2OOJF7VLsFIziT5MgY7c7zcStpLUF/AF/lP8QX0tp2HCrQqkhQTnqKahfcAJX4VK7+rkrZZRBBIT2pCvmdjEEUOPDMpEGDCRqk4kfrw5Yh6B99JChidhNruRaF79Zm4mhLv0qDYxBE0AQZL0Fxs/4hftQb29NaQmB2EdVZoXhEF2vxy7PaBM72v8SfPJ7n47Hvo0IIyk2hK156drDX06D3K3CqoAmHnAR1sF+nNFtvkIoFfK9lhC3IJyx4GHTZocOj1yWZzmonn5PEBVyLPXDE4Q6RVnRrqfxFF/W2VWFeImCffyMu/RHkZfGr5/tSBD2VOB6x4mobgx3ITDlAxpEKWZylK87/Hq0PP6ZF46aMrbXcCs6WNgcOPXW4lszZL1yhSlbFO5yjV5RWFQN8l00AmS7LZkP3el45WFUXvbpgNjFverNae304EPfA6Sy5CLpkVsL8q6QDCxiApeDUPDfVDBXWvVRFL9Y7wryi5ib8zhUauWxQynjd94ycJzT2jdswW7THjnrYsaPCvA4eYSJsu5jeERGcVmKrnEiC4hAodViMcxRAzh1ywq1/JxBVS4s/HPOM6kAnS/5ps+88JiDcqCIS1pPnJCjH6CL2rVsOEUdObUd3PukEKnnC3BSDvWNyHIfPkKatjpmJBEpT3XOagfPiKUbvCgo6uwZJRF3SYCbDXaVPt0iP3pwnwlFT3APXsgktTTVJSxsppIXcV+L/zxDJeIcbJ8kRVC1iCAPaXP/N/LioDSIg67NndWFxc6+YYQ9k8odS8VxAOXv1bmWIKKxLi99qEwH1Di5b9kMpppcF6j58oEwWiqCUej8W4r27uk2LbegLsGUfCnOcuHDZjXCkCEoZq6VITy6B0Mn035hAZGDqGdilh8g+5R6KQsyTqhN1ExT2JyWBSggQzxiv/aVPqUNoAiqvrVBf8AWhqO8gbK5kpTjllaCc/VlCOzElPU8lF7Y4sAiIr96BsP9kGuCnCHoTtbgmKPUlsrc/cfhUSGbZx3pMT2svBRPgbzQnqWWQQu+66iuEoFlKT22OwN7aMkUtqu1x1DkBjtOfjqUGFHRtxVsO0tRRV/Du2oojKIi5Qqz2iyNGWFTdQB2g4mqMcTMvnoyVwT0C/DlENajrfVfZdMkkQfRTTkYWDhKu75mpsKIwiJXeUPeXEJNV/rdwPLx32G2kEseGD8Q1shKUE/vJpZBV+BFKTlVg8LoVIBy1sgL8rjz/18SV/lwh+AU2Qcmi0dRqEgfo2vl5Da02/pQ24EsmauKYOKew28jbXdkRKO38Tov7CBpi03QG5NX/Dig2/gtFryNUKQ1SenLw7IC/S2gOkREWW6p7JWgqQK27Du6I4o8fNZ0y+tEN2JpcRu2h6lCvlq7Je898BE3iIMHQ5xaDKdRztlIFPyR4FnA9J4qRUlL9Yod2uY67CbjtIQpSU3Z+1gQeaipVWmmoV4ugpOjlQbEJSoUkojsanu0hRdVzZowFI7myq/jySdAUnjBXNvYi5GwHiJ1SNQr3Xe19d4BylC4q3je4ISo8Yx47rXdEZmUC9XLAXKWgBxRhmhnef8DwheCHyWrzmEDlbSO0GC+Z9uhZ5BjyG6ExLyo+K4I6VExntpEVLbiOs+r6Sq9JAWLf9NiggNi5SJeZdvKIz9YdAJ2pXC1FR+vDhhgBlNWIntycJEq9fOsqhGRFC7gkwFeXysPPqAYwZeW8XZ6xaxSPXiPYdakgJSnvc+oW/UHQHC4Iao4KK3Vpdy4CxuG4SOIj0B2nFSC5faNyPnWc5eEe/GxqR40EJS8o8qgVUrV0nBUKcQjuKZLgoQ4ZHMZ9Rqgz0pnKddjY2SRtDEG5lFPMJym7VKsF6tpinU3XZPGWvKXED4I6bLyYqp86lK7Tl6HV9jfXUUG7cJ9R+7OHhFwzSQZdt2uEmA+uiSpc81rIZ4R89qmQhsXOkDtBO4Uj7Wdw8oS4njwtFzsuTAX7j8uLX/5+hJ4qylTJpo9r0ARVP4kyY0YlmpEyrIoFyaaMHffqc4RAXqoM7oSa1k4zZ44uiphmRaMR4KnDT1GMdV18gsC6kSbfQ2Ov+D0zHMycFzkYjHm/JuHKroGMGD3JoYvC6XvYBN0TAetJxLTXm68/pUuAULWJ0TSZkGh6MiXhTxl0I1we7l+o/5kI1A0mB0oJWgNF0NgPilNL+mzQmHFQ7mCKHfqVM1BDQCUaYrfLUNdwEVY2QSmCRJNeUCvUOBcpTu4GXHVYNII60rikiqcQOyfLjYcWKdoi4BBSkmsdeVQQR9BgCdrmKpUQcGGVnGYKFQ1EG6jtwyrB7n+uBiTcSYrZ2O9Zgi+txA2Bh5yz9V8TeO/e+osLQR1hkthqnluC/4CZTIIagL3HreU5JZCeKiSLdW2DUmNSola24CnmDksX8W5E3VcDtCC1uMBglmhMpXdY3TVBKSkavQUA20S4HPkjRggOdntwKPSDjKp813SWlxRJAkh077C6EIKGzkRqGwvH4Kt7rAbMecR1MmBE5TNSlq6Ba+uumxEdCJrm/W5PkmPD8R+JnrLfAgeH7fF7W3RUDqqG0qoDMN2hrr1KBp025fnALCu+2XxMLfKi1h+/pHrSKpBUEI7kS9mYZV43Dw0VqKdKx5LZe5h36RshKAjDEVMAU5NzzAicG81HEZRS5Q+pPWdI8N8z6lMqCSdowXEm5k/wNkOKoFxAPLnXrA/XmhwsRPXDzE4dJ3SGKARvM7wpWNYkGK0PpwxGorCAwza1Rs6YsTEhbcB9xsmMztH3KmNnkRJ2pBPOVdRTI1GyWyeIJ25pD1AAabMaxhsBwR0AqYFpLFT8kxR+N168cq+0/lPGawuaAOnqa+Gnhc2I+rNcuR0X8yx+KasgOcj5W9xFkQRFXpZ601zy4IK6QF1vsHpXnoJlrnJIpKigLqjM1cnVXs0SFLYmVfYmLRiCyoDzSqVgnT6Nr+WDYvYHqSQS1AAn2Jw1vj6Ccikx6RESBAN+C8WZo68IyUlQxBmpjM084fo8QXngnCNvditkNhMngnNKnQnyBqXeTyGZSS9B4WFR/eozCTkJfHAMiFiFtJmETrejpGWqzWSCssBp2qCSv1CCciGnz2KLCjg4pOc6tMU5iKCOzWRKbFEBBZh/jTlTZYDtkpGic2lcExCgttipKtJTVSEopChncyZtIRDkBZh9HFcqadxKI8AdHv2DDPgSWFgy0vOl6nidOjPqOSLKgC+BqSWmNuid6mjaygRFaorKLt2Jqh82rOW4FGptLKm75YOTonMpJBk0ONXOruPxoRZBYUdwfeoy3GuAgGq/aeUAaid0au9JQhsrNTvpruMNxYLM4FHtL00a+pou8uJU/eNofZA06HCwYVT7vmk/fiOC4sngVP0XCeD3H5iixw0raxx6JNuOK/8RehCUQsx0kmg4qqBjONrTVVsDytra1Tlj0qD3Q9/W21dAO3J2566tAWWtEBRePSfOP8hs+X4BThFnd57a7PxtbdsxukCprcEK8VGpeuoBrHmt3BysaZsmXavruPXWYMfUuc+Sr+8FVo5hwh/bnhHVxb74mWO2/FchabmAqUbl2RXK6Fo35Vrx4m/+6M9yqzfHZomPXS/rF7QLbugX8O08H3cycaYLCWqcpinj2SuRpGXBQ859l3MSOiGo+n8Q3/VUCUkLQAA5W3WKrtGJircBEn51/Iqo+wxhhZK4LFHn5FQxCKrCSJp0Z4/gPQJW/0Qhp4pFUBVGUj2PdCFp0bRAhohbOqtiklN1aYNeA2r8o8Nx0uGLrfTZpwOESDbkVDEl6OUD/U/oCZJUZuFHBLOa0EZ0cqoUBFX/J+nGszbmFZkpQbf3Yox74Vo1ua7bU9QUSQiqwndw7iFNB7UcNhZQLrdyaDOVWlAkI6h6Px6Fi7MpqPzn1Psl+wSrRYNLWyqc+1PqEGBSgl4u4md7yBfPr4k0bQFwhLjuSwNdaD7L4ayzIKgKt0sVSvqeJRxVDTjfZcAu+azCfdkQVIWrHpWL+ikBONNnj4eucjWlsiKoQaDxrqCKniQkdQsQ88kxZc7GHiq90tykGMiSoKqaNFUokl4KUSsT84Rzy7bbIVuCGkCaLgNXbR+hpgan+hHPXAQSU+GhXuQoNW1kT1D1Xip8DnyLmaS2yv0GNAVmYS08oTobRZlFRRDUAFLiucLNUPBKN32SqjiHGR7aEM2iSlDnFIoiqEGFkIkNs5dnU6KtClJOQcwQu9zAaJNliaG5IglqAPX2VPGGKdy0LQi7zdUMwIM4w8uVEqZQNDENiiaoQU3Vb+MIwr6BsNEzKLCzJ5CSU/x3iLNzjSOiH0UT06AXBDWwlpZWsc047EHYA/7VN/ut6U3Hw2S/pvjvpte7g1PYqwhGrwhqw/JuZzUlkQsnkPYaW4t416hiL4fiCDNl2ddoRW8JagCpauy4aQdkjQ1DytUQCmd6T9BrIPBvvOGmajUWdsapG1o11+AIasMK3RinpKqn3BUMIbdt2L0lY9AEpQDbdQI7ctKSA8NhbzlhPxwyqXd9DyFoICzvW4G415tMTJhIMUN7D3iZXVOCAAhBBflCKfU/Dss9KUFAXesAAAAASUVORK5CYII=;fontSize=32;" vertex="1" parent="1">
          <mxGeometry x="1861" y="61" width="168" height="167" as="geometry" />
        </mxCell>
        <mxCell id="uLFq85hj9WoVxSmZYbQs-49" value="" style="shape=image;verticalLabelPosition=bottom;verticalAlign=top;imageAspect=0;aspect=fixed;image=data:image/png,iVBORw0KGgoAAAANSUhEUgAAAKgAAACoCAYAAAB0S6W0AAAACXBIWXMAAC4jAAAuIwF4pT92AAAS2klEQVR4nO1d/3XiuBaW5+z/yVYAW0F4FQxTwTAVQCoYUsGQCoZUMLiCJRUsVPCggrUreKEC3lHyKaOYe2XZ2JZk6zuHM7vBGBt/ur90fyTn81lERPiKP+KTMSNJs1shxEQIof6VGONVxGf8fy6EyArvvQghDvjvTL3O83HxuAgNUYJqSNJsChJOQMDP1h++DkcQVhJ4J/89z8eS0IPHYAkKyTjVXnceXJYOKYV36jVUSTsogiZpNgEhFx4SsgySsFuQdev3pTaH3hMUpJSEnAkhRh5cUhM4gazbvpO1lwSF+l60ICl152dHvH+AMzQl3lOO1m3D16TIuj7PxweL44NCrwgKJ0eScn7lqfaa03Jow9vWogMqIqActJsrTnsEUTcNXqpT9IKgSZpJUi5rSqaT5oxI75mSjJ0hSbNxwXmrY5bIe1qDrEFHA4ImKIi5qvEQj5oN57Va1AgrbeivFT8uiboBUYOMAgRJ0JrEPOJhbUMO2SRpNgNZq5gxwUrUoAgKG3NTgZg5jt/0LY4IG3ZW0bQ5gaSrli+vMQRBUKi5TYWdnT0exCDihQilLUFYGydLLtxlCL+P9wRN0kyu9h+Wh6d9DbfYAFJ1iZcNUeVCXvisXbwlaEV1Lom5iokXb6hI1BN+u3VX11cF3hEUP66Umt8tDo/ENKAiUb2Upl4RFLbUxsLo34OYTmOWoaDCovdOmnpD0CTN5Cr/WXLYCcZ9b3ZKugQEwNrC2XyGNHUeknJOUKzutUVc7wmrO+ZJXgnEkdclal96+jPXDqdTgiJ8tC1R6TlWc1TnDQKCYVOyO+VcYzkjKNTNrmQVR6nZMiyl6aOr4L4TguJH+WU45ASpOZjEXJew1GTpeT5edH2ZnRPUwhk6wvaJoaOOkaTZusTTl89m2qVG+9TlT5Ck2aaEnCl+gEhOBzjPx1J43EODUZASdgf7tRN0JkFBTpOn/uDrbsbQYOEfdCZJO5GgJeSUq/U+ktMfILQ0BhEpdCZJW5egFuScDjW5w3eAgDuD89S6JG1VgkZyhg0QbwrfgELrkrQ1CVoSSorkDAwlwqY1SdqKBI3k7B8QAzVJ0lZ8iMYlKDzA/zJvR3IGjhJJ+oRQVWNolKDYkTgw4YlIzp4gSbODwXG6b3LvvjEVD0N5G8k5CEwNIag1tGgjaNIGXRtW1TKSsz/QvHtqx0kKqG1Tnn0jBIVTxNkljzHBuH8oIekIqXxX42qCalnaFNKQarAjqgFakXOKviIx6Co0IUE3jN15NFx8RE8A7fjE3M3Pa+3RqwiKmnXK7jz5UtMS0T4QWtozX3SVqq9NUKwMrqFCdIqGhwVjj95BkNXCNRKUWxnP0SkaHpDDy2Xc/6ir6msRFMYvq9rrnDMifKBE55m5kVpboZUJit0iTmRHuzOCU/WfEY6shDoSdMV47c+xyC0CAooj4rpqAL8SQdHQiwrIR9Ue8Q6Dqr+pGnqsKkE51R5r1yOKWDKq/gfMRCtYExTSk+rpc4z1RBFFwKvneGEddqoiQbkvi7tFERzWaF1UxNxWiloRFI37qbDSPvZMiuAAs481C21+OFsJyknJmAgSYQQ2bWpL0VKCGmzPKD0jbFFbitpI0Cg9I65CiRQ1xkWNBIUIpvpHRukZURWcQDM62X+UfElvpGeS5mpW/K02wFVoU4sxq3MU47ktQEpRdM8r7kIuTHwyVnUmafZCnDA/z8fWgVaXSNJ8qs2Kt50ifER4ZBvJ2iwMM6++cdvkLEENzRcaLSttAyDmqsJkOgoYGziqrC0grSealNYxWEkNk/Ff4i2ZxzEjP2Mg6JawP+VDG/u6rZmkuU3f9apAj/yR0eYGKauMIxykpGZ4JfEnxSvSSYJnRZ1k6zE5J2ga0SQ5BSoU/0nSnLTHkzQfJ2m+QzeVeQVT4g4aKkvSfEgREU77khKU8+K5zCQvVTvIuas5/N8WP5M0/3D/INa/V5oSN28JFPkB99FrwNakQk6kAOAISrE59zG0pJHTVnJdg3mS5mtpSiRpvq0w5NYGaGWYk5KkZ6AcojtqZ+mCoFDvlETwLhkZNmdX5FT43pIpIXAffydp3vfcWk4TT4t/oCQot4J9VO9cL6i20aYpIfGrz+oeFb+Umr/gHhWov2Ax1LtXZcRQhdfYfr5Dqvux7uEXNhsm+FdBapIXhLBC2OXbEiNvLrQSRVBKgvp4w31PkpaaYQ1bd2YRvnpfrEn6KpyeEcLyNWa9o2YyyeQk3df5VHhzwvwIXtmfsNHaVrM+QIat/q4YvlL4ClMh89GmNRRYftDgRRuUUu/CQwk6BE+3KYw0onLP1xWodjmVCXr0KTgPz70ND7rvUBsOPm0KUILvg19RJCjlOfomPX2TAqFBbgpssNBdg+QWkuRf8Un74y1j1/lG0N7vtnSAuQ/P1bDx8/6MP1F/LMC3LnWRoM3grrh16wiUHUoSlFKdJw8nD/ugmvqCOZcE0yEoAfi+5fmJ+qOG2OOz//jpeNeKEoDvjlIkaIRwvOlBckwljugEpbYNfVPvEe3gs8NgPicELwha5cMuERdNO3Biixpi7K9mxytB9bhTAT6SIZod7eDOoS1KefKvzrBRgnrowYsO4ndHJhWsKeR4IFRrQtfwac/+g4oPJrZ4no8OLT/cZUsPShL/y3k+Glcsg+4SrnIcKKHzgaBUbJGbe+MDQpwiIh++LBWRZbT/8+B6KIw82QJ9R5PDZDsBMnJCy2Y6nuejLJBeqr5oUysv3itg1+OfklxQqf4fpTrF676gDZ7xN/X+o4XJoH/mgTj+WTvfNzmjVHvvXjMZljiGOm/xOqSt+gWmwRNxHym+S33nkTnvU0WTyEUyDqXiX5+xIih1UV45SNg3/mlx6BLdQMa4r0wzCU7oOKLeGyNIbbI50/N8NMN5JjjXWHvoe7z/ov2OekqbPPZFlm9omfHibQr0h/Oucaxy0DKUbszw3otmin07z0cL7TvH2nv3OK/AeVchZ4CZmod5Q1BITm7c9wfIEgfUK6m2PXpp8A0aLOi4Pc9Ha5RJFCH/uEQOpTrP6jwfSVtyjb9tSqpLf2gSQp0jl4sI96UWnVo4q0LLoTG0hoJcMFss2OJvssf969075IKVzSVS29/QJ3iv4mFz2khOdfxEPkCoPS5clEKlPkIKcdihaO0W6lW+DlotvsQEx0wMjuWhIMXUZ3VbWpJ7StQQFaWfKpUw1Y7p15thAQUZPy5rv+gDqnrsshpyiQe9BcHXaIxwwgN/0R6w6cEpLbIt1GXdas7E9yTN5fk25/loClW+1iSYlJZKxRfPW8x/mBD1X0Wn5QX3RElrdd5i1jzXyMx7eE1QqMCqxXE3qMFZQx2vofL/Rbe6AwilHvDeYKOph1rWKe8HMtWf0Whshn5NnzXS6ERT580K90ctFirsw0l9dd7NFUWFXvXe8l3F1wnLKOflBqlkC4R4BNTduEKQXBHXJMV1D/mrpmYV2dT/61NS1HmL0nJnkbQxw2aFqeDsmipcr0wBbwkKqVdVCuSQIg+wMx/gNKgHNwNZ7xGKeSohnwxcr2Eu/KXZrfeafbvQwkTyO6ew+ZQJkRF73PK8r9JdC139hffKitq+w86W9/QffO8DwkyfsSCX2nuPsMdtQ03BENS1zVInGD+CxBpDihzggSuJ8hWq90X15hRvi0HPh1wUwk7f8ZkZzr2D2lWqcIPjX/Df00KnvQMT/P4Bb3uMYxYFlS897xXXBBfXfKtJaHU9v3DeqXa9ts/y6Fuv0tcGtkxrZjkowVn8TLYjZIaHhYQTQlJUSMhHPEH6dgpk0/1T/M7zfJz4bIOGTk6hmQ+hBMpd5TiQ/cCEr158ISQTIh5UEy+o4hDa9OzhfPmCV8dWEZSyO1x2jgudoGNkLl07yKFLeNmGXBE0Zqk3i4uubZ5j77hlI5sLYjNpzgXigukOJ88y6RV+E9TQgsQJQeMArU6x0jYyXIEyg145UObFu0xe9Tmjvy9IsVngDIZhsq9aVCcoRQiXzkpU8+0iRU6pa3BC8MIGpcS8SwkaYt1RKPCFnILjmKoo9pagiMkdLQ6NqIYHj8gpGC39rs11glKO0o1DT16EOPbbY8jF/h/XNicBSgi+C0udoJzN51KKbqOzdDVy1ClNPNspUqA8+PfrfCcoeuRQJRKu95EXnnbh8BknpP69NorwdRSNoeXSO0GLe/EHYt/YKUFljA65oRfZLgOECqorrTYppNxlyAEIJQJCckuPyxcJuiMmaMghn7cuJ30g6eK+UO04RCxh9ng3N7UmKIJ+MOmKgXpuR8l5uhjU1JcBq/vU46lxdUHZnx84+IGgmMdJEcCLVjNIaBijXGNI8Clu2QiSNOM4xRMUoNSHNwm3cp8enTO+DISoT30jJ1BqfwqGoGSfHMzx9AZSmoKof6KILSX6bh4DDlPJiMo3FyUYHYGSoBcCh8qo3zLOyMLH7mzIfNqYtkYd1zftYZbYZtXnuBdZTdrLrC4IO+r3uNDeFwSV3nqSZnvCgJ0F0j6QwgpTg11ggVCZmvU+JZoxvCDEtw0oRHQNOJPlQnu/VnVe/DHNlkw/pC+G3FGvoXX66BJOqiT9fxZZsaOKwNDiCzOSywfl1GXIxnrXO1J5zCW4BLx3Sr2TOQIkQRGUpzzkmSHB1Gt03OH4hC4msTLgEpyQIzcfTBn11AduAmy//Q4Euu87+KrFQGzJSkBmHDXr/5nbqWQJep6PN4xKDFpttUzSExI0+rIV2TQ46clGYMpqkqgPjgxZKEFA2zZtch7SEQ1og3QiOwJlYuXn+Zhd0GUE5ZJbgzf+QaQJOtxdgxP6zfuab+kFkjRbMG0vjfkFZJjpwwFptmXshmBDTkWg1Y7qamcbUD+qDYLoDJWDCS1J/GnKlLMhKNl5zHX3u7aAgPpEmwSioILpGXrXx6G2loD0pHYn0/N8bAxdlhJUvH0BF+TujRSNaA8G6flX2TxY2/aLvbVFI9oFpCdFztRmWLGVBBVvX8QlXEQpGkECmzpUGZGwkZ6iYo96bhfGtzLWCH/ATWmxkp6iCkEhJancyjskl0REvAO7RhwvrE3Dqi3AuROvQt2jj2gNaybu+WgrPUVVgkKKpsRbN7GXUoQCMpao2PmpqklYZ4jCitmj/2oohIoYCKBJOWG1rFq+XpmgEM+cqt9EVT94bBjVvkcCUiXUGkNzno/XTOe5qOoHDINqF3Vzca+Zk8RtUX1FcDZiQIDXzgmnR/RcqIzaBMUXPjJvr30rU45oHZxql7VGtXccr5o0hy9mVX20R4eBJM3WhoLEq7RpE6MQuWK0u7jL1H/AnOPmQj3UVe0KVxMUF8AZwHMMqo3oIWDGcULoGc70VWhkmCzCB1QAX7yNnY5OU98A823H2J15UyXqTU47XhqGHkSnqUcoISdKrpvpJ9sYQXFBM8YevXkbwh9J2hPsDL2ultfanToanRePXSauDCSStAdI0mxjIOdTnd0iExolqPjtNHF155GkAQPknDN3IHM8G0+7bJyg4rfTFEnaI5SQ89hWWyHrko9aJzff1Omt0UFz9kpE84BDtC4h57StIRutElREkgYNzVvnbM5WySnaUvE6UPfMxUiVuo9xUs/gAzlFFwQVdiT9Feua/AH8g8w1OUUXKv7Dl5nVvQCJK2ddRzQHaDOunkh0SU7RNUGFub24whE7EbG1TMdAVhKX+CG6JqdwQVBh7tWjcHprAsu35Yto9HmM0bDYNAmltI9SG3BCUPHbzuH2cxVka8RVVPntwUKlC2TEO8lKc0ZQYb9yc0jT2F6nQWjVl1wNkYAmWza9fVkFTgkq7ALBClGaNgRLqZnDF3Aao3ZOUAUL50n4sKJDhpZgXDYv6hlay7kw8Iag4vcPaMqWUdhDmka1bwFoqVWJhy4gAFZNZMI3Ba8IKqr9mAJx01UMSdHAb7nEy6TOBRb9wrff0juCKqD1+MayZ3wkqoaKxPROaurwlqAKKLr7YXl4+jYleJjJJxWJKXyVmjq8J6j42LXCdhjsHkQdRKAftvsSJTc2xMzhbHr/+wRBUIWKal9os9c3fVP/kJZqRLrtLPwTFm4wpeBBEVQBcbxVBaIKba7RNmSyokHXzCJurEP15VyHFkcOkqAKNYkqQNYtyOq1vQrzZgpSmnZ9KJywKNehLsqgCaoAolZRdTpOyAmQr4Pr2KpGSPWquvhEyBKziF4QVAE26qKi+qOwR8LuQU2Xa1oCwYZUE+0UKSeWTg6HI0jZm522XhFUAQ9fzd6sI1U55CCugMQt4oCRiVRvAEm+W7yavKYTzJVehtd6SVAdCMEsYMPVUZc+4qTZ0L0OpfWeoDpA1mkLkrUL5CDlbkiJ3IMiqA6YAboz4hthJSGV87Yb6jbuYAlKAU6WPo7bdufqWhw1p0xFEwaf9yoiQcuhedvqX6F53kUoQh/hLOlQ8+YFyJi1ER3oGyJBI/yFEOL//lpYdcMtnS4AAAAASUVORK5CYII=;fontSize=22;" vertex="1" parent="1">
          <mxGeometry x="1861" y="347" width="171" height="171" as="geometry" />
        </mxCell>
        <mxCell id="uLFq85hj9WoVxSmZYbQs-51" value="&lt;font style=&quot;font-size: 32px;&quot;&gt;Salesforce&lt;/font&gt;" style="text;html=1;align=center;verticalAlign=middle;whiteSpace=wrap;rounded=0;" vertex="1" parent="1">
          <mxGeometry x="1894" y="530" width="129" height="30" as="geometry" />
        </mxCell>
        <mxCell id="uLFq85hj9WoVxSmZYbQs-53" value="" style="shape=link;html=1;rounded=0;exitX=0;exitY=0.5;exitDx=0;exitDy=0;exitPerimeter=0;edgeStyle=orthogonalEdgeStyle;" edge="1" parent="1" source="uLFq85hj9WoVxSmZYbQs-23" target="uLFq85hj9WoVxSmZYbQs-30">
          <mxGeometry width="100" relative="1" as="geometry">
            <mxPoint x="-472" y="740" as="sourcePoint" />
            <mxPoint x="-372" y="740" as="targetPoint" />
          </mxGeometry>
        </mxCell>
        <mxCell id="uLFq85hj9WoVxSmZYbQs-54" value="&lt;font style=&quot;font-size: 32px;&quot;&gt;VPN Tunnel&lt;/font&gt;" style="edgeLabel;html=1;align=center;verticalAlign=middle;resizable=0;points=[];" vertex="1" connectable="0" parent="uLFq85hj9WoVxSmZYbQs-53">
          <mxGeometry x="0.5782" y="2" relative="1" as="geometry">
            <mxPoint as="offset" />
          </mxGeometry>
        </mxCell>
        <mxCell id="uLFq85hj9WoVxSmZYbQs-68" value="" style="shape=image;verticalLabelPosition=bottom;verticalAlign=top;imageAspect=0;aspect=fixed;image=data:image/png,iVBORw0KGgoAAAANSUhEUgAAAKgAAACoCAYAAAB0S6W0AAAACXBIWXMAAC4jAAAuIwF4pT92AAAS2klEQVR4nO1d/3XiuBaW5+z/yVYAW0F4FQxTwTAVQCoYUsGQCoZUMLiCJRUsVPCggrUreKEC3lHyKaOYe2XZ2JZk6zuHM7vBGBt/ur90fyTn81lERPiKP+KTMSNJs1shxEQIof6VGONVxGf8fy6EyArvvQghDvjvTL3O83HxuAgNUYJqSNJsChJOQMDP1h++DkcQVhJ4J/89z8eS0IPHYAkKyTjVXnceXJYOKYV36jVUSTsogiZpNgEhFx4SsgySsFuQdev3pTaH3hMUpJSEnAkhRh5cUhM4gazbvpO1lwSF+l60ICl152dHvH+AMzQl3lOO1m3D16TIuj7PxweL44NCrwgKJ0eScn7lqfaa03Jow9vWogMqIqActJsrTnsEUTcNXqpT9IKgSZpJUi5rSqaT5oxI75mSjJ0hSbNxwXmrY5bIe1qDrEFHA4ImKIi5qvEQj5oN57Va1AgrbeivFT8uiboBUYOMAgRJ0JrEPOJhbUMO2SRpNgNZq5gxwUrUoAgKG3NTgZg5jt/0LY4IG3ZW0bQ5gaSrli+vMQRBUKi5TYWdnT0exCDihQilLUFYGydLLtxlCL+P9wRN0kyu9h+Wh6d9DbfYAFJ1iZcNUeVCXvisXbwlaEV1Lom5iokXb6hI1BN+u3VX11cF3hEUP66Umt8tDo/ENKAiUb2Upl4RFLbUxsLo34OYTmOWoaDCovdOmnpD0CTN5Cr/WXLYCcZ9b3ZKugQEwNrC2XyGNHUeknJOUKzutUVc7wmrO+ZJXgnEkdclal96+jPXDqdTgiJ8tC1R6TlWc1TnDQKCYVOyO+VcYzkjKNTNrmQVR6nZMiyl6aOr4L4TguJH+WU45ASpOZjEXJew1GTpeT5edH2ZnRPUwhk6wvaJoaOOkaTZusTTl89m2qVG+9TlT5Ck2aaEnCl+gEhOBzjPx1J43EODUZASdgf7tRN0JkFBTpOn/uDrbsbQYOEfdCZJO5GgJeSUq/U+ktMfILQ0BhEpdCZJW5egFuScDjW5w3eAgDuD89S6JG1VgkZyhg0QbwrfgELrkrQ1CVoSSorkDAwlwqY1SdqKBI3k7B8QAzVJ0lZ8iMYlKDzA/zJvR3IGjhJJ+oRQVWNolKDYkTgw4YlIzp4gSbODwXG6b3LvvjEVD0N5G8k5CEwNIag1tGgjaNIGXRtW1TKSsz/QvHtqx0kKqG1Tnn0jBIVTxNkljzHBuH8oIekIqXxX42qCalnaFNKQarAjqgFakXOKviIx6Co0IUE3jN15NFx8RE8A7fjE3M3Pa+3RqwiKmnXK7jz5UtMS0T4QWtozX3SVqq9NUKwMrqFCdIqGhwVjj95BkNXCNRKUWxnP0SkaHpDDy2Xc/6ir6msRFMYvq9rrnDMifKBE55m5kVpboZUJit0iTmRHuzOCU/WfEY6shDoSdMV47c+xyC0CAooj4rpqAL8SQdHQiwrIR9Ue8Q6Dqr+pGnqsKkE51R5r1yOKWDKq/gfMRCtYExTSk+rpc4z1RBFFwKvneGEddqoiQbkvi7tFERzWaF1UxNxWiloRFI37qbDSPvZMiuAAs481C21+OFsJyknJmAgSYQQ2bWpL0VKCGmzPKD0jbFFbitpI0Cg9I65CiRQ1xkWNBIUIpvpHRukZURWcQDM62X+UfElvpGeS5mpW/K02wFVoU4sxq3MU47ktQEpRdM8r7kIuTHwyVnUmafZCnDA/z8fWgVaXSNJ8qs2Kt50ifER4ZBvJ2iwMM6++cdvkLEENzRcaLSttAyDmqsJkOgoYGziqrC0grSealNYxWEkNk/Ff4i2ZxzEjP2Mg6JawP+VDG/u6rZmkuU3f9apAj/yR0eYGKauMIxykpGZ4JfEnxSvSSYJnRZ1k6zE5J2ga0SQ5BSoU/0nSnLTHkzQfJ2m+QzeVeQVT4g4aKkvSfEgREU77khKU8+K5zCQvVTvIuas5/N8WP5M0/3D/INa/V5oSN28JFPkB99FrwNakQk6kAOAISrE59zG0pJHTVnJdg3mS5mtpSiRpvq0w5NYGaGWYk5KkZ6AcojtqZ+mCoFDvlETwLhkZNmdX5FT43pIpIXAffydp3vfcWk4TT4t/oCQot4J9VO9cL6i20aYpIfGrz+oeFb+Umr/gHhWov2Ax1LtXZcRQhdfYfr5Dqvux7uEXNhsm+FdBapIXhLBC2OXbEiNvLrQSRVBKgvp4w31PkpaaYQ1bd2YRvnpfrEn6KpyeEcLyNWa9o2YyyeQk3df5VHhzwvwIXtmfsNHaVrM+QIat/q4YvlL4ClMh89GmNRRYftDgRRuUUu/CQwk6BE+3KYw0onLP1xWodjmVCXr0KTgPz70ND7rvUBsOPm0KUILvg19RJCjlOfomPX2TAqFBbgpssNBdg+QWkuRf8Un74y1j1/lG0N7vtnSAuQ/P1bDx8/6MP1F/LMC3LnWRoM3grrh16wiUHUoSlFKdJw8nD/ugmvqCOZcE0yEoAfi+5fmJ+qOG2OOz//jpeNeKEoDvjlIkaIRwvOlBckwljugEpbYNfVPvEe3gs8NgPicELwha5cMuERdNO3Biixpi7K9mxytB9bhTAT6SIZod7eDOoS1KefKvzrBRgnrowYsO4ndHJhWsKeR4IFRrQtfwac/+g4oPJrZ4no8OLT/cZUsPShL/y3k+Glcsg+4SrnIcKKHzgaBUbJGbe+MDQpwiIh++LBWRZbT/8+B6KIw82QJ9R5PDZDsBMnJCy2Y6nuejLJBeqr5oUysv3itg1+OfklxQqf4fpTrF676gDZ7xN/X+o4XJoH/mgTj+WTvfNzmjVHvvXjMZljiGOm/xOqSt+gWmwRNxHym+S33nkTnvU0WTyEUyDqXiX5+xIih1UV45SNg3/mlx6BLdQMa4r0wzCU7oOKLeGyNIbbI50/N8NMN5JjjXWHvoe7z/ov2OekqbPPZFlm9omfHibQr0h/Oucaxy0DKUbszw3otmin07z0cL7TvH2nv3OK/AeVchZ4CZmod5Q1BITm7c9wfIEgfUK6m2PXpp8A0aLOi4Pc9Ha5RJFCH/uEQOpTrP6jwfSVtyjb9tSqpLf2gSQp0jl4sI96UWnVo4q0LLoTG0hoJcMFss2OJvssf969075IKVzSVS29/QJ3iv4mFz2khOdfxEPkCoPS5clEKlPkIKcdihaO0W6lW+DlotvsQEx0wMjuWhIMXUZ3VbWpJ7StQQFaWfKpUw1Y7p15thAQUZPy5rv+gDqnrsshpyiQe9BcHXaIxwwgN/0R6w6cEpLbIt1GXdas7E9yTN5fk25/loClW+1iSYlJZKxRfPW8x/mBD1X0Wn5QX3RElrdd5i1jzXyMx7eE1QqMCqxXE3qMFZQx2vofL/Rbe6AwilHvDeYKOph1rWKe8HMtWf0Whshn5NnzXS6ERT580K90ctFirsw0l9dd7NFUWFXvXe8l3F1wnLKOflBqlkC4R4BNTduEKQXBHXJMV1D/mrpmYV2dT/61NS1HmL0nJnkbQxw2aFqeDsmipcr0wBbwkKqVdVCuSQIg+wMx/gNKgHNwNZ7xGKeSohnwxcr2Eu/KXZrfeafbvQwkTyO6ew+ZQJkRF73PK8r9JdC139hffKitq+w86W9/QffO8DwkyfsSCX2nuPsMdtQ03BENS1zVInGD+CxBpDihzggSuJ8hWq90X15hRvi0HPh1wUwk7f8ZkZzr2D2lWqcIPjX/Df00KnvQMT/P4Bb3uMYxYFlS897xXXBBfXfKtJaHU9v3DeqXa9ts/y6Fuv0tcGtkxrZjkowVn8TLYjZIaHhYQTQlJUSMhHPEH6dgpk0/1T/M7zfJz4bIOGTk6hmQ+hBMpd5TiQ/cCEr158ISQTIh5UEy+o4hDa9OzhfPmCV8dWEZSyO1x2jgudoGNkLl07yKFLeNmGXBE0Zqk3i4uubZ5j77hlI5sLYjNpzgXigukOJ88y6RV+E9TQgsQJQeMArU6x0jYyXIEyg145UObFu0xe9Tmjvy9IsVngDIZhsq9aVCcoRQiXzkpU8+0iRU6pa3BC8MIGpcS8SwkaYt1RKPCFnILjmKoo9pagiMkdLQ6NqIYHj8gpGC39rs11glKO0o1DT16EOPbbY8jF/h/XNicBSgi+C0udoJzN51KKbqOzdDVy1ClNPNspUqA8+PfrfCcoeuRQJRKu95EXnnbh8BknpP69NorwdRSNoeXSO0GLe/EHYt/YKUFljA65oRfZLgOECqorrTYppNxlyAEIJQJCckuPyxcJuiMmaMghn7cuJ30g6eK+UO04RCxh9ng3N7UmKIJ+MOmKgXpuR8l5uhjU1JcBq/vU46lxdUHZnx84+IGgmMdJEcCLVjNIaBijXGNI8Clu2QiSNOM4xRMUoNSHNwm3cp8enTO+DISoT30jJ1BqfwqGoGSfHMzx9AZSmoKof6KILSX6bh4DDlPJiMo3FyUYHYGSoBcCh8qo3zLOyMLH7mzIfNqYtkYd1zftYZbYZtXnuBdZTdrLrC4IO+r3uNDeFwSV3nqSZnvCgJ0F0j6QwgpTg11ggVCZmvU+JZoxvCDEtw0oRHQNOJPlQnu/VnVe/DHNlkw/pC+G3FGvoXX66BJOqiT9fxZZsaOKwNDiCzOSywfl1GXIxnrXO1J5zCW4BLx3Sr2TOQIkQRGUpzzkmSHB1Gt03OH4hC4msTLgEpyQIzcfTBn11AduAmy//Q4Euu87+KrFQGzJSkBmHDXr/5nbqWQJep6PN4xKDFpttUzSExI0+rIV2TQ46clGYMpqkqgPjgxZKEFA2zZtch7SEQ1og3QiOwJlYuXn+Zhd0GUE5ZJbgzf+QaQJOtxdgxP6zfuab+kFkjRbMG0vjfkFZJjpwwFptmXshmBDTkWg1Y7qamcbUD+qDYLoDJWDCS1J/GnKlLMhKNl5zHX3u7aAgPpEmwSioILpGXrXx6G2loD0pHYn0/N8bAxdlhJUvH0BF+TujRSNaA8G6flX2TxY2/aLvbVFI9oFpCdFztRmWLGVBBVvX8QlXEQpGkECmzpUGZGwkZ6iYo96bhfGtzLWCH/ATWmxkp6iCkEhJancyjskl0REvAO7RhwvrE3Dqi3AuROvQt2jj2gNaybu+WgrPUVVgkKKpsRbN7GXUoQCMpao2PmpqklYZ4jCitmj/2oohIoYCKBJOWG1rFq+XpmgEM+cqt9EVT94bBjVvkcCUiXUGkNzno/XTOe5qOoHDINqF3Vzca+Zk8RtUX1FcDZiQIDXzgmnR/RcqIzaBMUXPjJvr30rU45oHZxql7VGtXccr5o0hy9mVX20R4eBJM3WhoLEq7RpE6MQuWK0u7jL1H/AnOPmQj3UVe0KVxMUF8AZwHMMqo3oIWDGcULoGc70VWhkmCzCB1QAX7yNnY5OU98A823H2J15UyXqTU47XhqGHkSnqUcoISdKrpvpJ9sYQXFBM8YevXkbwh9J2hPsDL2ultfanToanRePXSauDCSStAdI0mxjIOdTnd0iExolqPjtNHF155GkAQPknDN3IHM8G0+7bJyg4rfTFEnaI5SQ89hWWyHrko9aJzff1Omt0UFz9kpE84BDtC4h57StIRutElREkgYNzVvnbM5WySnaUvE6UPfMxUiVuo9xUs/gAzlFFwQVdiT9Feua/AH8g8w1OUUXKv7Dl5nVvQCJK2ddRzQHaDOunkh0SU7RNUGFub24whE7EbG1TMdAVhKX+CG6JqdwQVBh7tWjcHprAsu35Yto9HmM0bDYNAmltI9SG3BCUPHbzuH2cxVka8RVVPntwUKlC2TEO8lKc0ZQYb9yc0jT2F6nQWjVl1wNkYAmWza9fVkFTgkq7ALBClGaNgRLqZnDF3Aao3ZOUAUL50n4sKJDhpZgXDYv6hlay7kw8Iag4vcPaMqWUdhDmka1bwFoqVWJhy4gAFZNZMI3Ba8IKqr9mAJx01UMSdHAb7nEy6TOBRb9wrff0juCKqD1+MayZ3wkqoaKxPROaurwlqAKKLr7YXl4+jYleJjJJxWJKXyVmjq8J6j42LXCdhjsHkQdRKAftvsSJTc2xMzhbHr/+wRBUIWKal9os9c3fVP/kJZqRLrtLPwTFm4wpeBBEVQBcbxVBaIKba7RNmSyokHXzCJurEP15VyHFkcOkqAKNYkqQNYtyOq1vQrzZgpSmnZ9KJywKNehLsqgCaoAolZRdTpOyAmQr4Pr2KpGSPWquvhEyBKziF4QVAE26qKi+qOwR8LuQU2Xa1oCwYZUE+0UKSeWTg6HI0jZm522XhFUAQ9fzd6sI1U55CCugMQt4oCRiVRvAEm+W7yavKYTzJVehtd6SVAdCMEsYMPVUZc+4qTZ0L0OpfWeoDpA1mkLkrUL5CDlbkiJ3IMiqA6YAboz4hthJSGV87Yb6jbuYAlKAU6WPo7bdufqWhw1p0xFEwaf9yoiQcuhedvqX6F53kUoQh/hLOlQ8+YFyJi1ER3oGyJBI/yFEOL//lpYdcMtnS4AAAAASUVORK5CYII=;fontSize=22;" vertex="1" parent="1">
          <mxGeometry x="-536" y="216" width="171" height="171" as="geometry" />
        </mxCell>
        <mxCell id="uLFq85hj9WoVxSmZYbQs-69" value="&lt;div style=&quot;font-size: 32px;&quot;&gt;&lt;ul&gt;&lt;li&gt;&lt;b style=&quot;&quot;&gt;&lt;font style=&quot;font-size: 32px;&quot;&gt;Both Public &amp;amp; Private Subnet part of&amp;nbsp;&lt;/font&gt;&lt;/b&gt;&lt;b style=&quot;background-color: initial;&quot;&gt;same CIDR block.&lt;/b&gt;&lt;/li&gt;&lt;li&gt;&lt;b&gt;&lt;font style=&quot;font-size: 32px;&quot;&gt;All future Internet facing traffic calls&amp;nbsp;&lt;/font&gt;&lt;/b&gt;&lt;b style=&quot;background-color: initial;&quot;&gt;goes via Mule (Experience API)&lt;/b&gt;&lt;/li&gt;&lt;li&gt;&lt;b&gt;&lt;font style=&quot;font-size: 32px;&quot;&gt;All API calls secured with TLS/mTLS,&amp;nbsp;&lt;/font&gt;&lt;/b&gt;&lt;b style=&quot;background-color: initial;&quot;&gt;Client-ID &amp;amp; Secret and optionally&amp;nbsp;&lt;/b&gt;&lt;b style=&quot;background-color: initial;&quot;&gt;OAuth tokens&lt;/b&gt;&lt;/li&gt;&lt;li&gt;&lt;b&gt;&lt;font style=&quot;font-size: 32px;&quot;&gt;Application Isolation – Each&amp;nbsp;&lt;/font&gt;&lt;/b&gt;&lt;b style=&quot;background-color: initial;&quot;&gt;application runs in its own pod.&lt;/b&gt;&lt;/li&gt;&lt;/ul&gt;&lt;/div&gt;" style="rounded=0;whiteSpace=wrap;html=1;align=left;" vertex="1" parent="1">
          <mxGeometry x="47" y="-251" width="1404" height="237" as="geometry" />
        </mxCell>
        <mxCell id="uLFq85hj9WoVxSmZYbQs-70" value="&lt;b&gt;&lt;font style=&quot;font-size: 22px;&quot;&gt;Legend&lt;/font&gt;&lt;/b&gt;" style="rounded=1;whiteSpace=wrap;html=1;" vertex="1" parent="1">
          <mxGeometry x="686" y="-279" width="120" height="60" as="geometry" />
        </mxCell>
        <mxCell id="uLFq85hj9WoVxSmZYbQs-71" value="&lt;font size=&quot;1&quot; style=&quot;&quot;&gt;&lt;b style=&quot;font-size: 52px;&quot;&gt;NTN MuleSoft Network Diagram - W.I.P&lt;/b&gt;&lt;/font&gt;" style="text;html=1;align=center;verticalAlign=middle;whiteSpace=wrap;rounded=0;" vertex="1" parent="1">
          <mxGeometry x="150" y="-591" width="1089" height="212" as="geometry" />
        </mxCell>
        <mxCell id="uLFq85hj9WoVxSmZYbQs-72" value="" style="endArrow=none;dashed=1;html=1;dashPattern=1 3;strokeWidth=3;rounded=0;" edge="1" parent="1">
          <mxGeometry width="50" height="50" relative="1" as="geometry">
            <mxPoint x="-98" y="1584.8096400669642" as="sourcePoint" />
            <mxPoint x="-98" y="-301" as="targetPoint" />
          </mxGeometry>
        </mxCell>
        <mxCell id="uLFq85hj9WoVxSmZYbQs-75" style="edgeStyle=orthogonalEdgeStyle;rounded=0;orthogonalLoop=1;jettySize=auto;html=1;entryX=0;entryY=0.5;entryDx=0;entryDy=0;strokeWidth=3;" edge="1" parent="1" source="uLFq85hj9WoVxSmZYbQs-74" target="uLFq85hj9WoVxSmZYbQs-39">
          <mxGeometry relative="1" as="geometry" />
        </mxCell>
        <mxCell id="uLFq85hj9WoVxSmZYbQs-74" value="&lt;b&gt;&lt;font style=&quot;font-size: 42px;&quot;&gt;Internet&lt;/font&gt;&lt;/b&gt;" style="sketch=0;outlineConnect=0;fontColor=#232F3E;gradientColor=none;strokeColor=#232F3E;fillColor=#ffffff;dashed=0;verticalLabelPosition=bottom;verticalAlign=top;align=center;html=1;fontSize=12;fontStyle=0;aspect=fixed;shape=mxgraph.aws4.resourceIcon;resIcon=mxgraph.aws4.internet_alt2;" vertex="1" parent="1">
          <mxGeometry x="-605" y="-109" width="273" height="273" as="geometry" />
        </mxCell>
        <mxCell id="uLFq85hj9WoVxSmZYbQs-76" value="" style="endArrow=none;dashed=1;html=1;dashPattern=1 3;strokeWidth=3;rounded=0;" edge="1" parent="1">
          <mxGeometry width="50" height="50" relative="1" as="geometry">
            <mxPoint x="1624" y="1527.8096400669642" as="sourcePoint" />
            <mxPoint x="1624" y="-358" as="targetPoint" />
          </mxGeometry>
        </mxCell>
      </root>
    </mxGraphModel>
  </diagram>
</mxfile>
